<svg id="Layer_1" data-name="Layer 1" xmlns="http://www.w3.org/2000/svg" viewBox="0 0 200 200"><path d="M56.09,133.76c-40.53,24.34-47.37,23.72-25-21.53,2.56-6.33,5-12.73,7.36-19.12.36-3.12-3.34-5.27-4.16-8.1C33,75.07-5.33,40.56,14.32,38.12c37.74,4.42,75.8,7.94,113.75,11.29,15.74.83,31.38,3,47.15,3.16,7.36-.72,15,6.33,4.95,9.8C182.2,69.6,173.44,71,169,74c-14.27,17.35-32.59,31.84-48.57,48Q108.9,133.44,97.54,145.1c-3.79,3.53-9.25,14.89-15,8.37C72.73,146.13,63.27,148.09,56.09,133.76ZM29.8,137.21l.46.19L158.65,67.66c-35.53,6.4-70.93,13.21-106.08,21.41a5.1,5.1,0,0,0-4.28,3.73C43.16,108,36.63,122.69,29.8,137.21ZM43.93,82.39c35-9.43,70.94-15,106.6-22.36-42.9-4.37-86.3-4.89-128.9-12C29.64,59.12,38.39,69.82,43.93,82.39Zm44.5,59.08c16.94-19.09,36.87-34.63,53.94-53.3L142,87.6,82.82,119.07C83.06,127.22,84.37,134.51,88.43,141.47ZM73.19,125.11l-9,4.73c2.88,4.88,7.35,7.58,12.16,9.71C75.31,134.66,74.25,129.89,73.19,125.11Z"/><path d="M73.19,125.11c1.06,4.78,2.12,9.55,3.2,14.44"/></svg>