<svg id="Layer_1" data-name="Layer 1" xmlns="http://www.w3.org/2000/svg" viewBox="0 0 200 200"><defs><style>.cls-1{fill:#fff;}</style></defs><path d="M105,75.06c3.48,0,7-.07,10.44,0a68.82,68.82,0,0,1,6.88.55,15,15,0,0,1,3.22,1c3.07,1.19,6.15,2.35,9.15,3.69A3.7,3.7,0,0,1,137,83.53a15.48,15.48,0,0,0,.86,2.82,7.77,7.77,0,0,1,.54,2.4c-.42,6-.6,11.94-1.49,17.82-1,6.49-1.71,13.05-3.76,19.36-.89,2.71-.84,5.76-1.87,8.4-2.76,7.11-3.94,14.65-6.26,21.87-1.1,3.39-2.32,6.76-3.71,10-1.23,2.92-2.83,5.68-4.18,8.55-1.06,2.24-1.84,4.62-3,6.81-2.08,3.91-4.92,7.1-9.45,8.21-3,.73-5.37-.46-7.4-2.54-3-3.12-4.54-7.18-6.58-10.91-1.69-3.08-2.53-6.47-3.75-9.73-3-7.86-5.36-15.93-8.85-23.62-1.29-2.84-1.51-6.15-2.35-9.21-.78-2.86-1.83-5.65-2.56-8.51-2-7.64-4.11-15.25-5.58-23a27.42,27.42,0,0,1,1.51-15.4c1.56-4,4.43-5.91,8.08-7.34a33,33,0,0,1,7.62-2.21c4.33-.61,8.62-1.55,13-2.09a59.26,59.26,0,0,1,7.18,0Zm-32.13,22-.39,0c.36,2.45.56,4.93,1.12,7.33q1.86,8,4,16c1,3.7,2.29,7.31,3.31,11,.82,3,1.18,6.1,2.19,9,1.93,5.51,4.19,10.89,6.27,16.34,1.15,3,2.33,6,3.26,9.11a55.12,55.12,0,0,0,8.83,17.63,2.64,2.64,0,0,0,2.08.9,5.73,5.73,0,0,0,2.62-1.35,15.29,15.29,0,0,0,4.25-6.63c.51-1.39,1.09-2.75,1.73-4.09,1.25-2.63,2.69-5.17,3.81-7.86a104.89,104.89,0,0,0,3.64-10.06c1.56-5.22,2.89-10.51,4.3-15.78,1-3.73,2.83-7.19,3.23-11.14.52-5.07,2.86-9.76,3.15-14.93.2-3.46,1.52-6.81,1.25-10.35a9.76,9.76,0,0,1,.21-2.34c.75-4.6,1.84-9.19-.08-13.77,0,0,0-.1,0-.13-.32-.44-.55-1.11-1-1.28-1.51-.64-3.25-.85-4.63-1.68-3.53-2.11-7.42-2-11.25-2.12-2.14-.06-4.26.07-6.44-.16a64.84,64.84,0,0,0-11,.07,87.36,87.36,0,0,0-9.34,1.65c-3.23.57-6.44,1-9.4,2.42-1.36.65-3.09,1.44-3.69,2.65C73.51,90.48,72.2,93.61,72.87,97.11Z"/><path d="M96.05,10.24c2.38.44,4.76.83,7.13,1.34,2.63.57,5.28,1.1,7.83,1.92,1.06.35,1.89,1.42,2.85,2.14,1.3,1,2.6,2,3.92,2.92a22.92,22.92,0,0,1,3,2.13A19.83,19.83,0,0,1,126,30.78a18,18,0,0,1,.22,8c-.73,3-.94,6.27-2.09,9.13-1.36,3.39-2.94,6.94-6,9.19s-6.16,4.35-9.92,5.37c-3.19.87-6.27,2-9.69,1.63A29,29,0,0,1,78.07,53.35,23.28,23.28,0,0,1,73.48,42c-.6-3.86.4-7.45,1.12-11.1,1.31-6.71,5.34-11.65,10.3-16a16.61,16.61,0,0,1,7.59-4.1,28.81,28.81,0,0,1,3.5-.31ZM78.75,39.5a17.28,17.28,0,0,0,4,11.06A23.19,23.19,0,0,0,100,58.71c3.6.14,6.88-1.42,10.07-2.86a14.12,14.12,0,0,0,5-3.4A20.88,20.88,0,0,0,120,42.77c.8-4.59,1.7-9.17-.39-13.7-1.15-2.48-2.36-4.78-5.16-5.79a9.38,9.38,0,0,1-2.29-1.47c-1.92-1.44-3.33-3.66-6.12-3.77a45,45,0,0,1-5.3-.62,9.47,9.47,0,0,1-2-.75A7.56,7.56,0,0,0,96.88,16c-3.31-.34-5.93.94-8.53,3.07C82,24.23,79.26,31,78.75,39.5Z"/><path class="cls-1" d="M72.87,97.11c-.67-3.5.64-6.63,2.09-9.57.6-1.21,2.33-2,3.69-2.65,3-1.42,6.17-1.85,9.4-2.42a87.36,87.36,0,0,1,9.34-1.65,64.84,64.84,0,0,1,11-.07c2.18.23,4.3.1,6.44.16,3.83.11,7.72,0,11.25,2.12,1.38.83,3.12,1,4.63,1.68.43.17.66.84,1,1.28,0,0,0,.09,0,.13,1.92,4.58.83,9.17.08,13.77a9.76,9.76,0,0,0-.21,2.34c.27,3.54-1.05,6.89-1.25,10.35-.29,5.17-2.63,9.86-3.15,14.93-.4,4-2.23,7.41-3.23,11.14-1.41,5.27-2.74,10.56-4.3,15.78A104.89,104.89,0,0,1,116,164.49c-1.12,2.69-2.56,5.23-3.81,7.86-.64,1.34-1.22,2.7-1.73,4.09a15.29,15.29,0,0,1-4.25,6.63,5.73,5.73,0,0,1-2.62,1.35,2.64,2.64,0,0,1-2.08-.9,55.12,55.12,0,0,1-8.83-17.63c-.93-3.09-2.11-6.09-3.26-9.11-2.08-5.45-4.34-10.83-6.27-16.34-1-2.9-1.37-6-2.19-9-1-3.7-2.31-7.31-3.31-11q-2.16-8-4-16c-.56-2.4-.76-4.88-1.12-7.33Z"/><path class="cls-1" d="M78.75,39.5C79.26,31,82,24.23,88.35,19c2.6-2.13,5.22-3.41,8.53-3.07a7.56,7.56,0,0,1,1.83.72,9.47,9.47,0,0,0,2,.75A45,45,0,0,0,106,18c2.79.11,4.2,2.33,6.12,3.77a9.38,9.38,0,0,0,2.29,1.47c2.8,1,4,3.31,5.16,5.79,2.09,4.53,1.19,9.11.39,13.7a20.88,20.88,0,0,1-4.89,9.68,14.12,14.12,0,0,1-5,3.4c-3.19,1.44-6.47,3-10.07,2.86A23.19,23.19,0,0,1,82.8,50.56,17.28,17.28,0,0,1,78.75,39.5Z"/></svg>