<svg id="Layer_1" data-name="Layer 1" xmlns="http://www.w3.org/2000/svg" viewBox="0 0 200 200"><path d="M105.47,13c10.41-.56,18.42,4.41,25.74,10.94,3.31,3,6.67,5.89,9.69,9.13,3.29,3.56,6.3,7.5,7.63,12.23a98.14,98.14,0,0,1,2.07,11.89c1.5,9.84-.11,19.47-2.5,28.94-1.6,6.32-4,12.57-8.44,17.45-5.37,6-10.77,12-17.37,16.79a57.29,57.29,0,0,0-6,5.46,10.1,10.1,0,0,0-2.9,8c.08,2.61-1.12,4.11-3.19,4.39-1.89.24-3.39-.85-4-3.2-1.55-5.52.42-10.23,4.13-14.07,3.51-3.63,7.63-6.67,11.35-10.1,2.83-2.62,5.46-5.46,8.17-8.2a10.36,10.36,0,0,1,.78-.93c5.59-4.35,8.13-10.64,9.93-17a79.89,79.89,0,0,0,3-18.21c.21-5.7-.82-11.48-1.69-17.17-.73-4.8-3.83-8.53-7-11.9-3.64-3.84-7.68-7.32-11.66-10.81-6.75-5.92-14.76-7.13-23.35-5.92-1.71.24-3.42.58-5.14.69a27.27,27.27,0,0,0-13.33,4.38A160.6,160.6,0,0,0,67.8,35.44C61,41,58.18,48.86,56.32,57.19a43.69,43.69,0,0,0-.09,17.68,104.42,104.42,0,0,0,7.61,24.9,35.24,35.24,0,0,0,4.69,6.78,88.61,88.61,0,0,0,6,6.75,129,129,0,0,0,9.34,8.93,13.43,13.43,0,0,1,4.77,8.88A3.47,3.47,0,0,1,86.08,135c-1.77.49-4-.3-4.24-2-.42-3.52-2.8-5.46-5.2-7.39-4.66-3.75-8.19-8.55-12.3-12.81C59.11,107.37,56.08,101,53.79,94a133.33,133.33,0,0,1-5-19.76,52.6,52.6,0,0,1,2.08-24.59c1.41-4.53,3.08-9,6-12.78A42,42,0,0,1,66.72,27c3.52-2.39,7-4.9,10.53-7.22C83,16.07,89.44,14.5,96.19,13.94,99.29,13.68,102.38,13.34,105.47,13Z"/><path d="M91.63,69.88c-1.34,0-2.32.06-3.29,0a3.57,3.57,0,0,1-3.21-3.14c-.19-1.52.75-3.47,2.25-3.68a23.86,23.86,0,0,1,6.8-.15c3.3.48,3.88,3.38,4.47,6.06.87,4,.23,8,0,12-.44,6.76-.12,13.57-.12,20.33.72.16,1.18.23,1.62.36a3.59,3.59,0,0,1-.89,7c-4.41.17-7.21-1.85-7.58-6.25-.45-5.43-.48-10.91-.45-16.36,0-3.26.61-6.52.74-9.79C92,74.2,91.75,72.09,91.63,69.88Z"/><path d="M110.89,161.23c-9,.24-18,.49-26.95.68-2.12,0-4.24,0-6.14-1.29a3.64,3.64,0,0,1,3.3-6.48,6.5,6.5,0,0,0,2.47.54c9.32-.26,18.65-.58,28-.88,1.1,0,2.19-.06,3.29,0a3.57,3.57,0,0,1,3.63,3.79,3.54,3.54,0,0,1-3.77,3.44c-1.27,0-2.54,0-3.81,0Z"/><path d="M111.65,150.29c-9.16,0-18.31,0-27.47,0a15.65,15.65,0,0,1-4.38-.74,3.24,3.24,0,0,1-2.31-3.32,3.38,3.38,0,0,1,2.29-3.35,7.31,7.31,0,0,1,4.65-.07c2.39.58,5,.31,7.53.33,6.73,0,13.46,0,20.19.07A3.53,3.53,0,0,1,115.9,147C115.74,149.12,114.06,150.42,111.65,150.29Z"/><path d="M92.12,173.34c-3-.26-6.66-.44-10.24-.93a3.37,3.37,0,0,1-2.69-4.17,3.75,3.75,0,0,1,4-2.87c6.38,0,12.76,0,19.13-.06,1.67,0,3.35-.16,5-.06a3.54,3.54,0,0,1,3.47,3.43,3.43,3.43,0,0,1-3.23,3.78C102.6,172.84,97.66,173,92.12,173.34Z"/><path d="M99.3,184.2c.06,2.61-2.6,4-4.89,4.16a3.56,3.56,0,0,1-3.67-3.6c.08-2.56,1.82-3.8,4.88-4.1A3.49,3.49,0,0,1,99.3,184.2Z"/><path d="M95.78,45.91a3.55,3.55,0,0,1,3.66-3.54A3.63,3.63,0,0,1,103,46a3.72,3.72,0,0,1-3.7,3.57A3.6,3.6,0,0,1,95.78,45.91Z"/></svg>