<svg id="Layer_1" data-name="Layer 1" xmlns="http://www.w3.org/2000/svg" viewBox="0 0 200 200"><path d="M25.77,155.53c4.56-.78,8.91-1.49,13.25-2.29,3.14-.58,6.24-1.41,9.39-1.94,6-1,12.08-1.72,18.07-2.86a19.47,19.47,0,0,0,6.42-2.6c5.1-3.12,10.06-6.45,15-9.78,3.26-2.19,6.4-4.59,9.67-6.78a8.93,8.93,0,0,1,3.1-1.12,3.82,3.82,0,0,1,4.37,2.6,4.06,4.06,0,0,1-2.18,4.79,72.1,72.1,0,0,0-6.65,3.88c-4.62,3.06-9.16,6.23-13.74,9.34-1.94,1.32-3.92,2.56-5.83,3.92a22.66,22.66,0,0,1-10,3.63c-7.48,1.14-15,2.19-22.44,3.41-2.6.42-5.12,1.34-7.72,1.85-4.76.94-9.54,1.82-14.33,2.57a5,5,0,0,1-5-1.75,5.6,5.6,0,0,1-.5-5.48c2.36-6.6,4.93-13.13,7.15-19.78,1.58-4.72,2.57-9.63,4.12-14.35,1.18-3.6,2.87-7,4.25-10.57a7.22,7.22,0,0,0,.46-2.65,4.35,4.35,0,0,1,2.28-3.94,41.81,41.81,0,0,0,4.51-3.46c2.06-1.76,4-3.68,6.07-5.41,4.42-3.65,8.8-7.37,13.4-10.8,3.39-2.54,7.2-4.52,10.64-7,7.59-5.5,15.1-11.12,22.58-16.77,4.87-3.68,9.59-7.55,14.45-11.24,1.52-1.15,3.34-1.89,4.9-3,3.78-2.65,7.45-5.47,11.25-8.07,2.44-1.67,5.08-3,7.57-4.62,2.12-1.36,4.16-2.84,6.21-4.31,5.6-4,11.34-7.84,18.14-9.3,4.72-1,9.64-1,14.16,1.14,1.91.91,3.45,2.57,5.27,3.7,2.57,1.59,5.3,2.92,7.85,4.53a13.27,13.27,0,0,1,5.78,7c.9,2.53,2.48,4.8,3.64,7.24a17.57,17.57,0,0,1-5.48,22.89c-3.53,2.57-7.22,4.93-10.8,7.44a20.7,20.7,0,0,0-3.24,2.74,42.35,42.35,0,0,1-9,6.74c-3.28,2-6.22,4.61-9.38,6.85-5.18,3.68-10.37,7.33-15.63,10.89-1.57,1.06-3.43,1.69-5.08,2.66a17.51,17.51,0,0,0-3.22,2.4,3.92,3.92,0,0,1-5.37.4,3.69,3.69,0,0,1-.45-5.43,17.57,17.57,0,0,1,5-4c6-2.73,11-7,16.49-10.53,5.87-3.85,10.86-9,17.25-12A5.5,5.5,0,0,0,164.07,75c3.38-3.68,7.5-6.36,11.65-9a57,57,0,0,0,6.88-5.3c3.16-2.8,3.83-6.43,2.5-10.3a45.75,45.75,0,0,0-2.93-5.75A10.42,10.42,0,0,1,180.86,42c-.49-2.74-2.35-4.14-4.56-5.44-3.18-1.87-6.22-4-9.36-5.88a9.72,9.72,0,0,0-3.32-1.46c-3.82-.59-7.71-.75-11.19,1.27-4.36,2.53-8.56,5.32-12.85,8-3.3,2-6.64,4-9.92,6.08-1.3.82-2.48,1.82-3.75,2.68-4.63,3.16-9.28,6.28-13.9,9.45-1.41,1-2.71,2.12-4.08,3.15L82.12,79.11C79.06,81.4,76.05,83.76,73,86a31.88,31.88,0,0,1-4,2.71c-5.39,2.87-9.91,6.89-14.48,10.85-4.19,3.63-8.41,7.23-12.61,10.84-.14.13-.33.23-.4.39-1,2.19-1.93,4.4-2.87,6.61-.12.27,0,.64-.19.9-3.91,7.15-5.39,15.12-7.8,22.77-1.26,4-2.86,7.88-4.28,11.82A23.76,23.76,0,0,0,25.77,155.53Z"/><path d="M158,186c-7.47,0-14.94-.1-22.41,0-11.73.19-23.46.5-35.18.81-12.34.33-24.69.49-37,1.14-15.84.84-31.68,1.52-47.54,1.31-1.72,0-3.44,0-5.15,0A3.84,3.84,0,0,1,7,186.15a3.72,3.72,0,0,1,2.36-4.32,10.34,10.34,0,0,1,3.26-.52c8.65,0,17.3.35,25.94.15,10-.24,20-1.08,30-1.36,17.15-.48,34.33-.33,51.46-1.17,20.31-1,40.61-.7,60.92-.81,2.8,0,4.47,1.43,4.47,3.8s-1.66,3.83-4.44,3.83H158Z"/><path d="M112.29,123a3.86,3.86,0,0,1-3.88-3.85,3.89,3.89,0,1,1,7.77,0A3.87,3.87,0,0,1,112.29,123Z"/></svg>