<svg id="Layer_1" data-name="Layer 1" xmlns="http://www.w3.org/2000/svg" viewBox="0 0 200 200"><path d="M20,107.3c0,7,.3,14.07-.1,21.08-.27,4.73-.61,9.4.55,14A20.54,20.54,0,0,0,28.64,154c5.91,4.36,12.75,5.45,19.92,5.5,10.59.08,21.17.5,31.75.5,11,0,21.91-.3,32.86-.52,5.11-.1,10.21-.19,15.3-.52,8.05-.52,16.08-1.26,24.12-1.84,2.45-.18,4.93,0,7.37-.21q10.57-1,21.13-2.14a4.27,4.27,0,0,1,4.83,2.9,3.76,3.76,0,0,1-2.7,4.87A95.43,95.43,0,0,1,171,164.4c-7.91.57-15.85.77-23.78,1.17-9.92.5-19.84,1.09-29.77,1.54-5.61.25-11.23.34-16.85.43-4.7.07-9.4,0-14.09,0-10.4.12-20.8.58-31.18.34-7.7-.18-15.45-.22-22.95-2.88A31.54,31.54,0,0,1,18.1,154.93c-3-3.69-5.61-7.71-6-12.56-.37-4.6-.22-9.24-.25-13.87,0-3,0-5.94.08-8.92.2-7,.18-14.06.75-21.06A134.26,134.26,0,0,1,15.42,79C17.33,70.83,22,64.25,30,60.79a42.69,42.69,0,0,1,12.7-3.74c14.47-1.39,29-.14,43.52-.61,9.09-.29,18.16-.92,27.24-1.38,2-.1,4-.05,6-.14,10.37-.48,20.73-1.17,31.11-1.4a112.91,112.91,0,0,1,19.3.8c6,.91,11.48,3.64,14.84,9.42,2.08,3.56,4.8,6.8,5.62,10.95.69,3.46,1.21,7,1.56,10.49a127.56,127.56,0,0,1,1,14.46c-.09,5.65-.93,11.29-1.28,16.94-.33,5.35-.48,10.71-.65,16.06-.09,3-1.63,4.86-4.1,4.83s-4.14-1.91-4-4.92c.42-7.71.94-15.42,1.49-23.12a100.57,100.57,0,0,0-.35-21c-.38-2.81-.59-5.64-.82-8.47-.42-4.94-3.23-8.74-5.87-12.66a11.94,11.94,0,0,0-9-5.06c-6.39-.59-12.86-.28-19.3-.3-4.65,0-9.32-.14-14,.09-7.59.36-15.17,1-22.76,1.47-2.7.18-5.4.46-8.11.5-14.66.24-29.32.39-44,.61-4,.07-8.07.47-12.09.35a10.6,10.6,0,0,0-6.25,1.36,2.43,2.43,0,0,1-1.3.31c-10.28-.12-16.2,7.85-17.86,16.26a124.47,124.47,0,0,0-2.24,24.44Z"/><path d="M31.62,117.63C31.57,103.08,37,92,46.39,82.76c3.66-3.56,8.63-4.41,13.54-5.11,2.26-.32,4.49-.91,6.73-1.39A4.82,4.82,0,0,1,68,76c4.08.46,8.16,1,12.24,1.47a1.87,1.87,0,0,1,.73.25c2.7,1.74,5.79,3.08,8,5.31C94,88.14,98.2,94,99.92,101.14a39.07,39.07,0,0,1,1,15.3c-.46,3-.51,6.06-1.18,9C98.3,131.67,94,136,89.38,140a73.6,73.6,0,0,1-8.9,7.09c-4.5,2.85-9.66,4.24-14.87,5.25a10,10,0,0,1-4.43-.06c-4.08-1.16-8.34-2.1-12-4.07a23.09,23.09,0,0,1-7.45-6.85A126,126,0,0,1,33.64,128,18.24,18.24,0,0,1,31.62,117.63Zm8.05-.45c-.38,5,1,7.57,3.34,11.4,1.25,2.11,2.69,4.11,3.84,6.27,4.41,8.27,15.93,11.32,24.83,7.66,5.95-2.45,10.31-6.72,14.87-10.89a17.2,17.2,0,0,0,5.93-10.77c.22-1.79,0-3.64.38-5.4.82-4.11,0-8.07-.77-12C91,97.91,87.15,94,84,89.72c-.35-.48-1.07-.7-1.61-1a17.72,17.72,0,0,0-3.79-2.24,35.3,35.3,0,0,0-7-1.3c-1.41-.12-2.87.5-4.32.56-2.37.11-4.78-.24-7.1.08-3.17.44-6.49.91-8.88,3.39C44,96.79,39.64,105.74,39.67,117.18Z"/><path d="M69.63,50H61.3a4,4,0,1,1-.07-8c4.72,0,9.45.24,14.15-.07,6.74-.45,13.46-1.3,20.19-2,3.27-.33,6.54-.76,9.82-1,8.8-.67,17.61-1.26,26.41-1.92a4.08,4.08,0,0,1,4.61,3.2,3.86,3.86,0,0,1-3,4.68,70.13,70.13,0,0,1-8,1c-8,.57-16.09.92-24.12,1.59-7.77.66-15.5,1.69-23.27,2.4-2.75.25-5.54,0-8.32,0Z"/><path d="M121.68,81.65c6.93-.6,13.87-1.21,20.8-1.79,1.35-.11,2.72,0,4.07-.09,6-.46,11.95-1,17.92-1.42a43.08,43.08,0,0,1,6-.07,4,4,0,0,1-.1,8c-4.17.41-8.35.71-12.52,1-6.75.5-13.5,1.09-20.26,1.44s-13.42.54-20.13.67a4,4,0,0,1-4-4.09,4,4,0,0,1,4.16-4c1.36,0,2.72,0,4.08,0Z"/></svg>