<svg id="Layer_1" data-name="Layer 1" xmlns="http://www.w3.org/2000/svg" viewBox="0 0 200 200"><defs><style>.cls-1{fill:#fff;}</style></defs><path class="cls-1" d="M166.79,74.54h.29c-.31-12.41-.51-24.83-1-37.23a90.45,90.45,0,0,0-1.68-13.1,5.66,5.66,0,0,0-7-4.52c-3.25.81-4.85,3.61-4.48,7.1.75,7.09,1.7,14.19,1.86,21.3.49,20.6.74,41.2.86,61.8,0,8.43-.24,16.89-.87,25.3-.34,4.63-1.29,9.33-4.42,13.16-2.2,2.69-4.09,5.73-6.64,8-4.43,4-8.89,8.14-15.17,9.2-4.16.71-8.3,1.59-12.48,2.22-7.5,1.12-14.88,2.43-22.64.77-7.93-1.69-16.28,1.09-24.31-1.25a5.09,5.09,0,0,0-1.41-.06c-6.1.12-12.3.72-17.45-3.71-.4-.34-1.07-.36-1.57-.6-7.33-3.57-13-8.47-13.08-17.4q-.45-32-.78-64C34.69,70.27,34.91,59,37.34,48,40.14,35.24,50,27.55,62.85,27.48c7.24-.05,14.53.33,21.71-.34,10.34-1,20.55-3.14,31-2.7a45,45,0,0,0,10.34-.91,5.65,5.65,0,0,0,4.45-7,6,6,0,0,0-7.18-4.39,44.12,44.12,0,0,1-5,.56c-7.56.53-15.08-.21-22.72,1.28-8.3,1.63-17,1.42-25.51,1.84-5.53.26-11.28-.68-16.59.48C40.59,19.05,32.82,28.1,27.74,39.61c-4,9.14-4.15,19.06-4.44,28.77-.35,12,.38,24.05.47,36.07.11,13.94-.08,27.87.09,41.8.11,9.35,4.29,16.84,11.8,22.3,3.46,2.52,7.42,4.34,11.07,6.63a24.61,24.61,0,0,0,12.49,3.76c5.14.18,10.27.78,15.4,1.05,3.17.17,6.34,0,9.51.06,2.81,0,5.62,0,8.42.18,2,.14,4.11,1,6.11.81,8-.67,16.06-1.41,24-2.53,4.9-.69,10-1.35,14.44-3.39,6.7-3.09,13-7.22,17.45-13.42,1.43-2,3.32-3.63,4.63-5.67a59.44,59.44,0,0,0,4.8-8.83c3-7.17,2.95-14.9,3.25-22.46s-.37-15.21-.45-22.81C166.72,92.8,166.79,83.67,166.79,74.54Zm-71,16.85c-.64-5.2-1.18-9.67-1.76-14.13-.42-3.25-.72-6.53-1.43-9.72a5.7,5.7,0,0,0-7-4.12,5.84,5.84,0,0,0-4.48,6.31c.91,6.89,1.8,13.77,2.84,20.63.25,1.72-.06,2.38-1.88,2.5-2.71.18-5.39.67-8.1,1C67.92,94.48,62,96.31,55.8,95c-3.08-.64-5.71,1.66-6.3,4.76a5.89,5.89,0,0,0,4.3,6.69c5.82,1.82,11.55.38,17.3-.34,4.25-.53,8.49-1.11,13.06-1.72v3.52c0,7,0,13.92,0,20.89,0,3.7,2.39,6.3,5.74,6.35s5.93-2.67,5.94-6.46c0-3.29,0-6.57,0-9.86,0-5.22,0-10.44,0-16.26l25.83-1.93a9.56,9.56,0,0,0,2.21-.38,5.72,5.72,0,0,0,3.94-6.39,5.52,5.52,0,0,0-5.32-4.95c-5.91.16-11.82.51-17.71,1C101.85,90.16,99,90.85,95.78,91.39Z"/><path d="M166.79,74.54c0,9.13-.07,18.26,0,27.39.08,7.6.74,15.22.45,22.81S167,140,164,147.2a59.44,59.44,0,0,1-4.8,8.83c-1.31,2-3.2,3.69-4.63,5.67-4.5,6.2-10.75,10.33-17.45,13.42-4.4,2-9.54,2.7-14.44,3.39-8,1.12-16,1.86-24,2.53-2,.16-4.06-.67-6.11-.81-2.8-.18-5.61-.15-8.42-.18-3.17,0-6.34.11-9.51-.06-5.13-.27-10.26-.87-15.4-1.05a24.61,24.61,0,0,1-12.49-3.76c-3.65-2.29-7.61-4.11-11.07-6.63-7.51-5.46-11.69-13-11.8-22.3-.17-13.93,0-27.86-.09-41.8-.09-12-.82-24.06-.47-36.07.29-9.71.39-19.63,4.44-28.77C32.82,28.1,40.59,19.05,53.38,16.27c5.31-1.16,11.06-.22,16.59-.48,8.53-.42,17.21-.21,25.51-1.84,7.64-1.49,15.16-.75,22.72-1.28a44.12,44.12,0,0,0,5-.56,6,6,0,0,1,7.18,4.39,5.65,5.65,0,0,1-4.45,7,45,45,0,0,1-10.34.91c-10.49-.44-20.7,1.73-31,2.7-7.18.67-14.47.29-21.71.34C50,27.55,40.14,35.24,37.34,48c-2.43,11-2.65,22.32-2.51,33.6q.38,32,.78,64c.12,8.93,5.75,13.83,13.08,17.4.5.24,1.17.26,1.57.6,5.15,4.43,11.35,3.83,17.45,3.71a5.09,5.09,0,0,1,1.41.06c8,2.34,16.38-.44,24.31,1.25,7.76,1.66,15.14.35,22.64-.77,4.18-.63,8.32-1.51,12.48-2.22,6.28-1.06,10.74-5.21,15.17-9.2,2.55-2.3,4.44-5.34,6.64-8,3.13-3.83,4.08-8.53,4.42-13.16.63-8.41.91-16.87.87-25.3-.12-20.6-.37-41.2-.86-61.8-.16-7.11-1.11-14.21-1.86-21.3-.37-3.49,1.23-6.29,4.48-7.1a5.66,5.66,0,0,1,7,4.52,90.45,90.45,0,0,1,1.68,13.1c.48,12.4.68,24.82,1,37.23Z"/><path d="M95.78,91.39c3.17-.54,6.07-1.23,9-1.47,5.89-.48,11.8-.83,17.71-1a5.52,5.52,0,0,1,5.32,4.95,5.72,5.72,0,0,1-3.94,6.39,9.56,9.56,0,0,1-2.21.38l-25.83,1.93c0,5.82,0,11,0,16.26,0,3.29,0,6.57,0,9.86,0,3.79-2.53,6.52-5.94,6.46s-5.73-2.65-5.74-6.35c0-7,0-13.93,0-20.89V104.4c-4.57.61-8.81,1.19-13.06,1.72-5.75.72-11.48,2.16-17.3.34a5.89,5.89,0,0,1-4.3-6.69c.59-3.1,3.22-5.4,6.3-4.76,6.21,1.3,12.12-.53,18.14-1.19,2.71-.29,5.39-.78,8.1-1,1.82-.12,2.13-.78,1.88-2.5-1-6.86-1.93-13.74-2.84-20.63a5.84,5.84,0,0,1,4.48-6.31,5.7,5.7,0,0,1,7,4.12c.71,3.19,1,6.47,1.43,9.72C94.6,81.72,95.14,86.19,95.78,91.39Z"/></svg>