<svg id="Layer_1" data-name="Layer 1" xmlns="http://www.w3.org/2000/svg" viewBox="0 0 200 200"><path d="M131,155.85c.43,2.38.89,4.75,1.26,7.13a15.49,15.49,0,0,1,.06,2.89c-.06,1.15-.32,2.29-.3,3.44a11.39,11.39,0,0,1-2.93,7.7c-1.49,1.8-3.12,3.49-4.58,5.32-2.14,2.69-5.28,3.63-8.23,4.91-3.41,1.48-7.1,1.67-10.72,2.18a78.22,78.22,0,0,1-8.36.9c-2.92.1-5.86-.23-8.79-.26a39.39,39.39,0,0,1-12-1.58c-2.26-.73-4.75-.89-6.84-1.92-3.92-1.92-5.85-5.57-6.39-9.73-1.13-8.6.1-17.07,2-25.47,1.66-7.48,3.2-15,5-22.45.92-3.84,2.25-7.58,3.39-11.37,1-3.26,2-6.52,2.9-9.78a30.3,30.3,0,0,0,.86-3.47,41.29,41.29,0,0,1,3.8-10.67c2.46-5.23,4.7-10.56,7.26-15.74,1.37-2.79,3.38-5.15,6.64-5.94a11.61,11.61,0,0,1,2.25-.37,14.55,14.55,0,0,1,4.42,0c2.48.7,5,1.36,7.06,3.27,2.7,2.48,3.87,5.73,5.22,8.93a24.2,24.2,0,0,1,1.87,6.73c.23,2,1.29,3.78,1.67,5.73a20.79,20.79,0,0,0,2.11,5.85c2.48,4.65,3.34,9.82,4.68,14.82.91,3.45,1.43,7,2.2,10.49,1.1,5,2.28,10,3.37,15.09a45,45,0,0,1,.75,4.79c.33,2.83.58,5.67.87,8.51Zm-5.43.78.41-.06c-.1-1.57-.14-3.15-.32-4.71-.31-2.66-.55-5.34-1.09-8-1.14-5.46-2.48-10.87-3.67-16.32-.46-2.11-.68-4.28-1.12-6.4-.33-1.54-.84-3-1.29-4.54-1.1-3.63-2-7.35-3.39-10.84-1.22-3-2.71-5.82-3.24-9.08-.29-1.83-1.41-3.54-1.59-5.36a24.31,24.31,0,0,0-1.76-6.1c-.35-1-.8-1.87-1.2-2.81a7.46,7.46,0,0,0-5.18-4.79A24.9,24.9,0,0,0,99.47,77c-1.8-.25-3.66-.33-4.93,1.29A19.15,19.15,0,0,0,92.21,82c-2,4.27-3.91,8.58-5.82,12.89-1,2.3-2.13,4.56-2.91,6.93-1.17,3.55-2.12,7.18-3.11,10.79-.84,3.08-1.34,6.28-2.43,9.26-2.66,7.28-4.15,14.86-5.93,22.35-1.37,5.79-2.26,11.71-3.16,17.6A50.52,50.52,0,0,0,68.41,176c.36,2.73,2.68,5.85,5.11,6.38a99.35,99.35,0,0,0,10.61,2.07,104.11,104.11,0,0,0,12.61.5c3,0,6-.62,9-.94,4.12-.45,8.18-1.15,11.87-3.19a11.2,11.2,0,0,0,2.68-1.87,67.43,67.43,0,0,0,4.79-5.47,7.84,7.84,0,0,0,1.49-3.17,41,41,0,0,0,.4-5.21,3.7,3.7,0,0,0,0-.88C126.51,161.72,126.05,159.17,125.59,156.63Z"/><path d="M96.66,65c-3.33,0-6.26.24-8.93-1.21-1.22-.66-2.32-1.56-3.53-2.26-1-.59-2.14-1-3.19-1.58A10.41,10.41,0,0,1,77.93,58c-2.53-3-5.22-6-6.19-10a26.23,26.23,0,0,1,1.15-16.88q1.35-3.16,2.79-6.29a16.29,16.29,0,0,1,4.83-6c2.41-1.9,4.89-3.68,7.31-5.57,3-2.33,6.51-3,10.17-3.21a22.7,22.7,0,0,1,8.58.92c1.36.46,2.83.6,4.17,1.12a14.73,14.73,0,0,1,2.51,1.66,5.61,5.61,0,0,0,1.4.76,15.86,15.86,0,0,1,8.27,5.68c1.49,2.06,2.17,4.76,3,7.25,1.23,3.78.85,7.63.17,11.48-.27,1.51,0,3.14-.45,4.57-1.52,4.8-3.64,9.26-7.89,12.37-2.33,1.7-4.44,3.73-6.83,5.34A22.35,22.35,0,0,1,96.66,65Zm-.4-5.49c6.07,0,8.64-.57,12.07-3.09,2.78-2,5.37-4.33,8-6.56a5.82,5.82,0,0,0,1.31-1.72c1.5-2.85,3.32-5.61,2.89-9.09a3.47,3.47,0,0,1,.13-.88c.22-1.82.82-3.69.56-5.44a61.33,61.33,0,0,0-2.16-8.35,4.44,4.44,0,0,0-1.14-1.49c-2.8-3-6.88-3.33-10.36-4.9-1.18-.53-2.55-.52-3.21-1.93-.1-.23-.58-.37-.9-.4-1.73-.12-3.47-.31-5.21-.26a12.12,12.12,0,0,0-7.65,2.4c-2.15,1.73-4.41,3.33-6.57,5.07a10.43,10.43,0,0,0-2.38,2.45c-3.37,5.48-6,11.24-5.29,17.91a15.3,15.3,0,0,0,1.39,5.22,41.42,41.42,0,0,0,3.79,5.6,3.68,3.68,0,0,0,1.25.8c2,1.14,4,2.32,6.11,3.37a11.91,11.91,0,0,0,3.42,1.24A23.63,23.63,0,0,0,96.26,59.51Z"/></svg>