<svg id="Layer_1" data-name="Layer 1" xmlns="http://www.w3.org/2000/svg" viewBox="0 0 200 200"><path d="M23.2,57.27c.28,3.08.5,5.51.72,7.95.21,2.28.54,4.55.59,6.83.2,10,.21,20,.49,29.92.26,9.24.71,18.47,1.18,27.7.23,4.45.8,8.89,1,13.34.16,2.81,1.6,4.91,3.34,6.85a18.76,18.76,0,0,0,9.82,5.67c5.6,1.36,11.32,1.29,17,2,11.72,1.39,23.45,1.29,35.18,1.09,7.36-.13,14.71-1.09,22.07-1.46q11.5-.59,23-.75c8.12-.13,16.24.09,24.35-.09a18.26,18.26,0,0,0,6.29-1.61,10,10,0,0,0,6.41-8.18,59.1,59.1,0,0,0,.64-6.5c.69-18,1-35.95.69-53.94-.06-3.62-.32-7.25-.35-10.87a44.47,44.47,0,0,1,.41-6.21,3.23,3.23,0,0,1,3.07-3,3.13,3.13,0,0,1,3.29,2.73,64.28,64.28,0,0,1,1.43,10.47c.24,14,.4,28.07.27,42.1-.08,7.89-.73,15.77-1.23,23.64-.61,9.56-5.48,15.42-14.45,18.09a36.61,36.61,0,0,1-9.21,1.28c-6.45.18-12.91.07-19.36,0-2.07,0-4.15-.52-6.21-.41-8,.43-15.95,1-23.92,1.56-3.53.23-7,.65-10.58.67-10.29,0-20.59,0-30.88-.14-4.45-.07-8.89-.72-13.35-.89a79.39,79.39,0,0,1-18.17-2.49A25.17,25.17,0,0,1,21.2,150c-1.91-3.43-2-7.41-2.27-11.22q-1.61-20.19-1.64-40.46c0-8.73-.14-17.46-.53-26.17-.26-5.59-.93-11.17-1.69-16.72-.59-4.37.61-7.7,4.48-9.65a9.16,9.16,0,0,1,4.54-.48,172.42,172.42,0,0,0,22.73.27c4.67-.33,9.37-.15,14-.46,6.33-.42,12.63-1.09,18.95-1.65.51,0,1-.09,1.55-.1,14.67-.2,29.33-.61,44-.46,5.19,0,10.36,0,15.55-.07,7.27-.1,14.54.32,21.82.35,4.36,0,8.71-.29,13.07-.44.52,0,1,0,1.56,0,6.29-.2,7.29,4.93,5,8.56a52.21,52.21,0,0,1-3.86,5.26c-1.82,2.26-3.68,4.5-5.64,6.64-3.14,3.45-6.38,6.81-9.6,10.19-1.06,1.12-2.18,2.2-3.27,3.31-3.49,3.55-7,7.1-10.46,10.67-1.44,1.48-2.77,3.08-4.25,4.53-2.58,2.55-5.23,5-7.86,7.54l-5.65,5.35c-.75.71-1.42,1.53-2.22,2.18-4.9,4-9.77,8.06-14.78,11.92a26.73,26.73,0,0,1-5.71,3.11c-2.87,1.27-5.43.43-7.78-1.51a47.34,47.34,0,0,0-6.17-4.72c-4.8-2.8-8.78-6.62-13-10.08-5.65-4.58-11.16-9.34-16.7-14.06C64,90.41,62.69,89,61.3,87.78a23.42,23.42,0,0,0-3.56-3c-4.88-2.89-9-6.75-13.17-10.46C44,73.78,43.43,73,42.7,72.7c-5.06-2-8-6.53-11.76-10C28.78,60.73,26.12,59.29,23.2,57.27Zm6.91-5.12a13.27,13.27,0,0,0,2,1.67,16.56,16.56,0,0,1,5.72,4.67c1.78,2.14,3.66,4.45,6,5.81A60.41,60.41,0,0,1,52,70.48c3.43,2.85,7.16,5.33,10.59,8.18,4.47,3.71,8.76,7.63,13.14,11.44Q82,95.51,88.26,100.89c2.28,2,4.5,4,6.9,5.83,3.8,2.85,7.73,5.54,12,8.54a21.63,21.63,0,0,0,3.38-1.87c3.61-2.79,7.16-5.66,10.66-8.57,2.08-1.73,4-3.59,6-5.42,1.52-1.4,2.91-3,4.51-4.28,3.55-2.9,7-5.84,9.68-9.65A30.67,30.67,0,0,1,144.91,82q4.71-4.77,9.36-9.56c1.52-1.56,3-3.09,4.53-4.69,2.88-3.12,5.75-6.25,8.57-9.43,1.8-2,3.49-4.12,5.23-6.17.44-.52.91-1,1.82-2-1.5,0-2.39,0-3.28,0-2.28.07-4.56.25-6.85.24C151.1,50.26,137.9,50,124.7,50c-10,0-20,.4-29.95.2-9.69-.19-19.29,1-28.95,1.36s-19.09.78-28.64,1.07C35,52.71,32.87,52.35,30.11,52.15Z"/></svg>