<svg id="Layer_1" data-name="Layer 1" xmlns="http://www.w3.org/2000/svg" viewBox="0 0 200 200"><path d="M28.85,157.7c2.65-.87,4.94-1.48,7.13-2.36,6.94-2.76,14.05-5.09,20.42-9.19,3.31-2.13,7-3.66,10.45-5.57a15.65,15.65,0,0,0,3.4-2.6q4.41-4.39,8.64-9c1.33-1.45,2.45-3.09,3.69-4.63.52-.64,1-1.51,1.67-1.79a5.61,5.61,0,0,1,3.19-.41,2.62,2.62,0,0,1,1.91,2.89,4.76,4.76,0,0,1-.67,2.36,74.44,74.44,0,0,1-5.35,7.22c-2.82,3.18-5.85,6.18-8.89,9.16a17.84,17.84,0,0,1-3.9,3c-4.46,2.46-9,4.69-13.49,7.15-6,3.34-12.55,5.48-19,7.88-1.95.73-3.95,1.3-5.88,2.06a9.67,9.67,0,0,1-5.5.5,4.92,4.92,0,0,1-4.18-4.07,24.83,24.83,0,0,1-.46-4.64c-.12-9,1.6-17.77,3-26.58.41-2.56,1.12-5.07,1.51-7.63a10,10,0,0,1,4.24-6.65A41.08,41.08,0,0,0,41,103.9a31.85,31.85,0,0,1,3-3.57c3.57-4.07,7.13-8.13,10.72-12.17,3.25-3.64,6.67-7.15,9.8-10.9C73.59,66.32,83,55.58,93.11,45.57c5.25-5.18,10.66-10.18,16-15.22,4.71-4.42,13.93-4.41,18.53-1.84,2.36,1.31,4.91,2.32,7.11,3.85a25.49,25.49,0,0,1,5.41,5.06,70,70,0,0,1,6,9c3.08,5.52,2.12,12.92-1.89,17.81-2.1,2.56-3.94,5.33-6,7.88-1.38,1.67-3,3.11-4.57,4.65-2.19,2.19-4.4,4.36-6.56,6.59-2.67,2.75-5.3,5.54-8,8.32-2,2.1-4,4.25-6,6.3a16.7,16.7,0,0,1-3.34,2.73,3.33,3.33,0,0,1-4.14-5.15c3.47-3.72,7.06-7.33,10.59-11,1.71-1.78,3.37-3.64,5.1-5.41,2.52-2.59,5.11-5.13,7.64-7.71C130.49,70,132,68.54,133.28,67c1.81-2.14,3.39-4.47,5.25-6.55a9.35,9.35,0,0,0,1.41-11.16A50.45,50.45,0,0,0,132,39a8.67,8.67,0,0,0-2.09-1.3,31.85,31.85,0,0,1-3.56-1.9,11.66,11.66,0,0,0-7.64-2.09,8.85,8.85,0,0,0-5.92,2.39c-3.21,3-6.61,5.72-9.63,8.86Q91.72,56.84,80.56,69C74,76.16,67.68,83.44,61.28,90.68c-3.51,4-6.82,8.14-10.48,12-2.6,2.72-4.8,5.7-7.15,8.6a68.62,68.62,0,0,1-8.17,8.09,6.92,6.92,0,0,0-2.73,4.31c-.9,6-2,12.09-2.79,18.16-.58,4.41-.86,8.86-1.24,13.3A22.92,22.92,0,0,0,28.85,157.7Z"/><path d="M165,169.47c-6.65,0-13.3-.19-19.94,0-10.59.37-21.16,1-31.75,1.53-4.15.19-8.3.36-12.45.44-7.9.15-15.8.08-23.69.39-7.37.29-14.71,1.16-22.07,1.39-8.09.24-16.2.05-24.29,0-1.56,0-3.12,0-4.68-.1-2.18-.11-3.54-1.33-3.59-3.11s1.4-3.32,3.71-3.29c4.15,0,8.31.5,12.45.35,10.06-.39,20.11-1,30.17-1.56q7.62-.39,15.24-.7c10.18-.42,20.35-.8,30.52-1.21,11.83-.49,23.66-1,35.49-1.48,6.75-.26,13.5-.4,20.25-.57a32.69,32.69,0,0,1,3.43,0,3.82,3.82,0,0,1-.07,7.63c-2.9.11-5.82,0-8.73,0Z"/><path d="M97.82,106.87A3.2,3.2,0,0,1,101,110a4.58,4.58,0,0,1-4,4.4,3.41,3.41,0,0,1-3.45-3.26C93.56,109.2,95.86,106.88,97.82,106.87Z"/></svg>