<svg id="Layer_1" data-name="Layer 1" xmlns="http://www.w3.org/2000/svg" viewBox="0 0 200 200"><path d="M178.41,132V115.8c0-1.25-.15-2.5,0-3.74.61-7.65,1.36-15.29,1.88-23a49.56,49.56,0,0,0-1.49-17.3c-.92-3.16-3.09-5.38-5.24-7.61a4.23,4.23,0,0,0-2.56-1c-3-.27-6-.5-9-.52-8.84-.06-17.69.13-26.53,0-7.06-.15-14.11-.71-21.17-1.08-1-.06-2.07-.11-3.11-.11-9,0-17.9,0-26.85,0-1.32,0-2.64.36-4,.47a14.32,14.32,0,0,1-2.45,0,55.16,55.16,0,0,0-5.56-.49c-6.75.17-13.52.25-20.24.8a150.58,150.58,0,0,0-18.21,2.45C27.08,66,20.06,71.75,19.61,80.38c-.27,5.39-.7,10.77-.85,16.16-.23,8.21-.28,16.42-.42,24.63-.1,5.4-.27,10.8-.35,16.2a115.81,115.81,0,0,0,1.65,19.22c.51,3.39,2.34,5.58,5.5,6.44a31.64,31.64,0,0,0,8.26,1.36c11.23,0,22.45-.35,33.68-.51,5.31-.07,10.62.15,15.92-.07,9.76-.4,19.5-1.1,29.25-1.53,6.75-.3,13.52-.33,20.28-.54,8.61-.26,17.23-.61,25.85-.88q7.49-.24,15-.34c2.14,0,3.42.9,3.8,2.51s-.27,2.82-2,3.86a7.5,7.5,0,0,1-2.27.93,19.58,19.58,0,0,1-3.41.39q-11.07.31-22.13.56c-11.22.25-22.46.35-33.67.78-7.26.28-14.5,1.09-21.75,1.54-2.91.19-5.83.06-8.74,0-10.09,0-20.18-.17-30.28-.16-7,0-13.93.39-20.89.27A23.78,23.78,0,0,1,18.26,167a12.12,12.12,0,0,1-5.13-8.25,167.57,167.57,0,0,1-1.77-20.13c-.18-9.44.25-18.9.43-28.36.14-6.74.18-13.5.51-20.24a121.22,121.22,0,0,1,1.35-13.31c1.14-7.22,5.69-12.1,11.75-15.66A26.07,26.07,0,0,1,36.61,57.6C43.33,57,50,56.07,56.72,55.29c.51-.06,1,0,1.55-.07,4.67-.15,9.34-.34,14-.44,4-.08,8.08-.08,12.12-.1,6.66,0,13.32,0,20-.06a171,171,0,0,1,20.86,1.12,35.67,35.67,0,0,0,3.73.14c11.35,0,22.69,0,34,.06a79.68,79.68,0,0,1,9,.56,12,12,0,0,1,7.29,3.8c5.57,5.64,7.42,12.74,7.65,20.21.21,6.72-.47,13.47-.88,20.2-.26,4.24-.84,8.47-1.08,12.71-.11,2.06.38,4.14.35,6.2-.13,10.92-.33,21.82-.52,32.73a8.08,8.08,0,0,1-.1,1.56,3.2,3.2,0,0,1-6.25-.08,4.21,4.21,0,0,1-.07-.94V132Z"/><path d="M62.51,147.48a21,21,0,0,1-12-2.35,8.24,8.24,0,0,0-2.06-.71c-5.88-1.23-9.31-5.36-12.49-10-5.43-8-5.17-16.53-3.2-25.45,1.45-6.58,5.1-12,8.63-17.49a12.08,12.08,0,0,1,4.44-3.81c5-2.62,10-5.31,15.66-5.87,6.09-.61,12.1-.54,18.09,1.77,4.77,1.83,7.86,5,10.93,8.77,5.58,6.89,6.53,14.76,6.1,23.16-.55,10.73-5.87,19-13.73,25.62A27.3,27.3,0,0,1,62.51,147.48Zm.21-6.57a34.92,34.92,0,0,0,5.9-.31c9-2,14.68-8.19,18.6-16.14,2.27-4.62,2-9.67,2-14.67.1-6.65-3.19-11.69-7.45-16.22-2.4-2.56-5.88-3.24-9.15-4.14-1.09-.3-2.42-.09-3.33-.63-2.07-1.23-4.19-1-6.35-.73-5.06.57-9.46,3-13.94,5.15a6.42,6.42,0,0,0-2.58,2.2c-3.07,5-6.49,9.88-7.63,15.88-1.3,6.91-1.69,13.57,2.69,19.73,2.33,3.28,4.59,6.43,8.9,7.19a7.17,7.17,0,0,1,2.06.7A17.89,17.89,0,0,0,62.72,140.91Z"/><path d="M129.23,46.74c-11.37.19-24.16.33-36.94.64-9.45.23-18.9.68-28.34,1.06-2.28.09-4.56.3-6.83.44a9,9,0,0,1-1.56,0c-2.14-.23-3.38-1.52-3.31-3.39a3.16,3.16,0,0,1,3.25-3.13c2.79-.2,5.6-.2,8.41-.34,8.81-.43,17.63-.9,26.45-1.34q2.81-.13,5.61-.18c8-.12,16-.14,24-.38,6.22-.19,12.44-.65,18.65-1l.31,0c3.06-.15,4.92,1.08,5.08,3.36s-1.5,3.62-4.66,3.81C136.46,46.45,133.55,46.55,129.23,46.74Z"/><path d="M151.13,86.28c-8-.29-16-.54-24-.91-2.19-.1-3.42-1.48-3.34-3.31S125.22,79,127.41,79c3.32,0,6.64.16,10,.12,8.83-.11,17.65-.31,26.48-.43a65,65,0,0,1,6.84.22A3.33,3.33,0,0,1,174,82c.09,1.62-.93,2.9-3,3.42a14.2,14.2,0,0,1-3.38.39c-5.5,0-11,0-16.51,0Z"/></svg>