<svg id="Layer_1" data-name="Layer 1" xmlns="http://www.w3.org/2000/svg" viewBox="0 0 200 200"><path d="M175.92,76.61c-.33,8.35-1.5,16.52-4.89,24.28-1.41,3.23-2.43,6.63-3.65,9.94a63.79,63.79,0,0,1-10.5,17.59,12,12,0,0,0-1.69,2.24c-2,4.34-5.45,7.56-8.59,11-2.87,3.16-5.66,6.37-8.55,9.51-1.26,1.37-2.65,2.63-4,3.9-2.81,2.61-5.55,5.31-8.51,7.75-3.91,3.24-8,6.33-12,9.37a5.33,5.33,0,0,1-4.75.81c-12.47-3.39-24.7-7.47-35.81-14.21A127.06,127.06,0,0,1,57,147.92c-5.31-4.45-10.56-9.26-14.66-14.78-5.42-7.29-11.11-14.55-14.35-23.27-6.14-16.57-6.54-33.05.62-49.46a30.23,30.23,0,0,1,7.26-9.64c1.65-1.57,3.16-3.28,4.76-4.9A19.61,19.61,0,0,1,44,42.67c5.76-3.54,11.64-6.83,18.48-7.9a55.55,55.55,0,0,1,13.94-.85C83.2,34.55,89,37.5,94.7,40.66a18.54,18.54,0,0,1,6.17,6.07c1.4,2,3.28,3.74,4.83,5.68a44.71,44.71,0,0,1,4,5.55,7.47,7.47,0,0,1,.73,3.59,3,3,0,0,1-2.73,2.93c-1.5.16-3-.43-3.26-1.84-.73-3.45-3.31-5.4-5.52-7.71a27.72,27.72,0,0,1-3.56-4.32,13.74,13.74,0,0,0-6-5.31c-4.71-2.16-9.38-4.4-14.77-4.61A40.46,40.46,0,0,0,56.06,44c-1.51.68-3,1.47-4.49,2.17a15.5,15.5,0,0,0-6.52,5.15,16.65,16.65,0,0,1-3.19,3.41,26,26,0,0,0-8.59,12.69c-5.48,16.33-3.82,32,4.47,46.88a156,156,0,0,0,9.31,14,39.32,39.32,0,0,0,4.45,4.78c2,2,4.23,4,6.24,6.07A35.26,35.26,0,0,0,65,145.06c2.76,1.65,5.33,3.61,8,5.47A87.87,87.87,0,0,0,88.83,159,157.79,157.79,0,0,0,108,165.5a4.15,4.15,0,0,0,3.78-.59,66.36,66.36,0,0,0,11.67-9.8,13.21,13.21,0,0,1,1.52-1.56c8-6.11,13.84-14.33,20.61-21.63,2.58-2.77,4.15-6.46,6.54-9.45,5-6.29,7.91-13.55,10.59-21,2-5.68,4.24-11.26,5.05-17.29,1-7.17,1.17-14.38-1.05-21.31a61.33,61.33,0,0,0-8.42-16.61,10.52,10.52,0,0,0-2-1.94c-1.86-1.51-3.82-2.88-5.62-4.45-6-5.17-13-6.25-20.42-5.13A17,17,0,0,0,124.18,37c-3.72,2.25-7.24,4.85-10.84,7.31a39.39,39.39,0,0,1-3.61,2.44,4,4,0,0,1-5.23-5.27,8,8,0,0,1,1.62-2.26C113,33,120.46,27.53,129.88,26.33c9.23-1.18,18,.46,25.4,6.82a64.32,64.32,0,0,0,5.31,4.33,18.74,18.74,0,0,1,5.95,6.7c2.2,4.12,4.4,8.27,6.18,12.58A45.85,45.85,0,0,1,175.92,76.61Z"/></svg>