<svg id="Layer_1" data-name="Layer 1" xmlns="http://www.w3.org/2000/svg" viewBox="0 0 200 200"><path d="M53.14,61.21A58.72,58.72,0,0,1,55.79,43.3C58.87,33.78,63.41,25,72.25,19.39a95.09,95.09,0,0,1,9.52-5.9,58,58,0,0,1,21.06-5.15,92.11,92.11,0,0,1,10-.2,32,32,0,0,1,17.37,6.21c11.39,7.94,17.36,19.3,20.08,32.59,1.66,8.11.82,16.15-1.26,24.08a134.61,134.61,0,0,1-10.82,27.13c-2.17,4.24-4.46,8.43-6.78,12.59-2.47,4.42-3.65,9.26-4.85,14.1a34.74,34.74,0,0,1-1.12,4.21,4,4,0,0,1-4.83,2.47,4,4,0,0,1-3.06-4.47c1.26-7.75,3.48-15.24,7.83-21.83a113.38,113.38,0,0,0,8.94-17.08c2.75-6.25,5.61-12.49,7.21-19.22C143.93,58.75,144.18,48.76,140,39a75.28,75.28,0,0,0-3.42-7A32.71,32.71,0,0,0,117.2,16.27c-4.63-1.47-9.52-1-14.25-.54-4.33.44-8.59,1.46-12.87,2.3-4.62.91-8.28,3.77-12.19,6.12C67.82,30.2,63.34,39.86,61.33,50.82a66.38,66.38,0,0,0,1.86,30.25C64,83.86,64.61,86.8,66,89.3c3.55,6.44,7.5,12.67,11.27,19a81,81,0,0,1,4.26,7.6,14.77,14.77,0,0,1,1,5.13,2.84,2.84,0,0,1-2.56,3,2.92,2.92,0,0,1-3.52-1.92c-1.63-6.92-6.71-11.9-9.93-17.91-2-3.74-4.38-7.29-6.5-11-2.74-4.76-3.9-10.11-4.94-15.37C54.05,72.41,53.77,66.78,53.14,61.21Z"/><path d="M96,95.25c.65-7.13,1.31-14.26,1.94-21.39.29-3.31.58-6.62.72-9.94a28.85,28.85,0,0,0-.42-4.32c-.26-2.4-1.1-4.08-3.95-4.28A2.84,2.84,0,0,1,91.68,52c.11-1.66,1.16-2.7,3-3A8.54,8.54,0,0,1,104,53.79,20.63,20.63,0,0,1,106,64.38c-.29,5.18-.78,10.35-1,15.53-.34,6.84-.58,13.69-.79,20.54-.11,3.32.41,6.29,3.63,8.38,2.17,1.41,1.46,4.47-1,5.49s-5.36,0-7.39-2.56c-2.3-2.91-3-6.35-3.14-9.93-.1-2.18,0-4.36,0-6.55Z"/><path d="M114.86,162c-7.51.09-16.42.31-25.34.26a69.06,69.06,0,0,1-10.82-1A14.21,14.21,0,0,1,73.61,159a3,3,0,0,1-1.11-4.32,3.08,3.08,0,0,1,4-1.34c4.06,1.55,8.33,1.6,12.54,1.82a134,134,0,0,0,14,0c6.62-.35,13.23-1.08,19.85-1.53a19.86,19.86,0,0,1,5.21.39,2.9,2.9,0,0,1,2.26,3,3.15,3.15,0,0,1-1.89,3,6.31,6.31,0,0,1-2,.7C123.1,161.15,119.69,161.48,114.86,162Z"/><path d="M101.94,176.61c-7-.28-14.08-.49-21.12-.87a12,12,0,0,1-4.12-1.2A2.91,2.91,0,0,1,75,171.18a3.18,3.18,0,0,1,3-2.7,33.13,33.13,0,0,1,3.73-.06c9.22.11,18.43.31,27.65.3,4.44,0,8.88-.37,13.33-.62,2.36-.13,4,.9,4.45,3a3.65,3.65,0,0,1-2.94,4.41,29.7,29.7,0,0,1-6.42.93c-5.29.13-10.58,0-15.87,0Z"/><path d="M115.57,145.3c-3.31.17-6.62.51-9.92.49-5.49,0-11-.36-16.48-.48-1.86,0-3.72.2-5.59.25a15.2,15.2,0,0,1-2.78-.14c-2.27-.36-3.38-1.54-3.32-3.37s1.09-2.84,3.22-3.14a50.43,50.43,0,0,1,6.81-.64c5.49,0,11,.18,16.49.16,4,0,8.08-.29,12.13-.37a32.93,32.93,0,0,1,5,.28c2.08.26,3.15,1.4,3.24,3.14a3.24,3.24,0,0,1-2.87,3.51,54.46,54.46,0,0,1-5.87.52Z"/><path d="M96.67,188.94a3.14,3.14,0,0,1,3-3.35,3.22,3.22,0,0,1,3.44,3.23A3.32,3.32,0,0,1,99.91,192,3.16,3.16,0,0,1,96.67,188.94Z"/><path d="M101.83,30.88a3.18,3.18,0,0,1-3,3.3,3.08,3.08,0,0,1-3.38-2.9,3.12,3.12,0,0,1,3.13-3.48A3.19,3.19,0,0,1,101.83,30.88Z"/></svg>