<svg id="Layer_1" data-name="Layer 1" xmlns="http://www.w3.org/2000/svg" viewBox="0 0 200 200"><path d="M23.31,168.57a18.64,18.64,0,0,1-7.8-10.9c0-.11-.09-.22-.12-.33-1.29-4.11-3.3-8.14-1.87-12.6,2.05-6.38,5.15-12,10.48-16.46,7.49-6.34,16.39-9.42,25.38-12.48A131.85,131.85,0,0,1,64.74,112a171.17,171.17,0,0,0,21.79-6.34,27.54,27.54,0,0,0,15.33-13c2.17-4,4.32-8.06,6.13-12.24,7.09-16.45,14-33,21.07-49.45a67.14,67.14,0,0,1,4.35-8.64c2.17-3.52,4.22-4.19,8.28-3.25a33.63,33.63,0,0,1,3.79,1.13c6.24,2.17,12.45,4.41,18.7,6.54,2.49.85,5.14,1.29,7.58,2.26,6.24,2.47,7.58,5.58,5.41,11.85a14.62,14.62,0,0,0-.34,1.44c1,.39,1.82.76,2.7,1.09,3.89,1.47,5.07,3.49,3.86,7.57s-2.71,8.23-4.27,12.26c-3,7.75-6.33,15.36-9.13,23.17-2.47,6.89-4.5,13.94-6.54,21-2.3,8-4.44,16-6.58,24-1.59,6-3.59,11.77-7,16.91-4.45,6.71-10,12.45-17.94,14.89-3,.93-6.42.68-9.57,1.36-6.38,1.37-12.89,1.08-19.32,1.7a56,56,0,0,0-19.43,5c-3,1.45-6.26,2.34-9.39,3.52-4,1.54-8.1,3.06-12.1,4.71-3.73,1.53-7.6,1.89-11.59,2.18a66.44,66.44,0,0,1-15.37-.9,14.55,14.55,0,0,1-10.77-7.55C23.73,172.09,23.74,170.54,23.31,168.57ZM129.12,52.11c-.34.38-.56.52-.65.73-4.9,11.09-9.7,22.23-14.75,33.25-2,4.46-4.57,8.71-7,13a19.37,19.37,0,0,1-3.67,4.86c-4.88,4.34-10.22,8-16.59,9.87C81,115.38,75.61,117,70.18,118.55a27.67,27.67,0,0,1-6,1.3c-5.26.31-10,2.47-14.93,4-3.07.93-6,2.22-9.06,3.35,10.18,10,10,22.29,8,35.18,7-2.46,14-3.73,20.6-6.36,7.65-3.05,15.83-4.78,23.78-7.07a16.91,16.91,0,0,1,2.13-.36l13.16-2a6.92,6.92,0,0,0,.33-1.48c-.1-6.3,1.86-12.08,4.47-17.67,3.62-7.75,9.35-13.07,18.05-14.42,3.51-.54,7.1-.57,10.89-.86.14-.42.4-1.08.58-1.77,2-8.15,4.22-16.26,7.71-24,1.83-4,3.45-8.21,5-12.38,1.28-3.45,2.29-7,3.3-10.13Zm46.64-1.35L175,50c-.67.3-1.58.43-2,.95a15.34,15.34,0,0,0-1.83,3.5C167.88,63,164.63,71.53,161.29,80c-2.2,5.61-4.55,11.15-6.76,16.74a48.05,48.05,0,0,0-1.58,5.16c-1.51,5.69-2.75,11.46-4.5,17.07-1.92,6.2-4.09,12.33-6.5,18.34-1.85,4.6-4.5,8.79-8.83,11.6-6.25,4.05-12.67,7.47-20.54,6a11.79,11.79,0,0,0-1.79-.11A56.86,56.86,0,0,0,93,157c-5,1.45-9.84,3-14.87,4.26-5.69,1.39-11.18,3.59-16.79,5.34-3.55,1.1-7.16,2-10.74,3q-4.68,1.31-9.34,2.64c-.68.2-1.34.47-2.44.86.89.29,1.22.42,1.56.52,3.45,1,6.91-.1,10.36.07a20,20,0,0,0,8.78-1.63c4-1.63,8-3.19,12.09-4.73,2.34-.89,4.77-1.58,7.08-2.54,4.88-2,9.59-4.57,14.94-5.16,9.29-1,18.59-1.93,27.89-2.86,2.15-.21,4.32-.22,6.45-.55a12.46,12.46,0,0,0,4.44-1.34c5.27-3.13,9.67-7.24,12.27-12.85a110.67,110.67,0,0,0,7.15-20.78c1.82-7.58,3.9-15.1,5.8-22.67,2.26-9,6.29-17.4,9.67-26C170.12,65.3,172.93,58,175.76,50.76ZM30.59,163.43c1.76.71,3.07,1.36,4.45,1.77,2,.6,2.75.22,3.67-1.75a29.62,29.62,0,0,0,1.23-22.13,14.74,14.74,0,0,0-2.6-5.47c-3.93-4.34-5.26-4.44-9.19-1.17-3.7,3.06-5.71,7-7.21,11.41-1,3,.68,5.63,1.39,8.37C23.53,159.09,26,162.55,30.59,163.43Zm108.9-43.3c-7.29-.4-13.34,1.09-17.32,6.8a40.74,40.74,0,0,0-4.92,10.69,17.12,17.12,0,0,0-.72,9.72,18.81,18.81,0,0,0,3.94-.72c2.21-.91,4.31-2.08,6.45-3.17A15.44,15.44,0,0,0,134.3,135C136.13,130.3,137.63,125.5,139.49,120.13ZM136.6,32.29C146.15,38.8,157,40,167,43.45l2.53-6.24-29.3-9.69C139.05,29.11,137.91,30.6,136.6,32.29Zm-2.55,7.41-2.12,5.23c6.86,3,13.38,6,20.09,8.53,3,1.13,6.2,2.75,10,1.73.3-1.5,1.64-2.76,1.27-4.64C153.41,47.34,143.27,45.21,134.05,39.7Z"/></svg>