<svg id="Layer_1" data-name="Layer 1" xmlns="http://www.w3.org/2000/svg" viewBox="0 0 200 200"><path d="M51.88,69c0,9.47-.13,18.94,0,28.41.12,6.12.91,12.23,1,18.35.09,6.43-.29,12.86-.46,19.29,0,.83-.1,1.67-.1,2.5,0,9.16-.11,18.32,0,27.47a57.74,57.74,0,0,0,1.13,9.89,10.14,10.14,0,0,0,9.06,7.73,175.79,175.79,0,0,0,19.88-.2c5.69-.3,11.41,0,17.12.05,3,0,6-.06,9.05.06,4.14.17,8.28.44,12.42.78a3.76,3.76,0,0,1,3.69,3.88,3.68,3.68,0,0,1-3.82,3.71,43.07,43.07,0,0,1-4.66-.25c-2.69-.18-5.37-.45-8.06-.55-6.43-.22-12.87-.45-19.31-.52-3.41,0-6.83.36-10.25.4-4.88.07-9.75,0-14.63,0a17.55,17.55,0,0,1-17.87-16.09c-.44-4.13-.65-8.3-.72-12.45-.12-7-.14-13.94,0-20.92.11-6.12.54-12.25.66-18.37a91.19,91.19,0,0,0-.37-10.59c-1-9.65-.77-19.32-.78-29,0-14-.09-28.1.07-42.15A107.53,107.53,0,0,1,46.24,26.8,16.92,16.92,0,0,1,52,15.72a17.44,17.44,0,0,1,7.35-3.9A77.35,77.35,0,0,1,77.25,9.63c9.57.07,19.13-.1,28.7-.18a18.51,18.51,0,0,0,2.78-.23,20.66,20.66,0,0,1,7.4-.06,28,28,0,0,0,7.15.12,26.75,26.75,0,0,1,11,2c4.63,1.72,7.31,5.41,8.57,10A102.84,102.84,0,0,1,146,38.39a179,179,0,0,1,1.06,23c-.17,5.91-.65,11.81-1,17.72-.05.83-.14,1.66-.16,2.49-.28,17.26-.67,34.51-.79,51.77-.1,12.69.14,25.38.28,38.07,0,2.81.34,5.6.42,8.41a12.44,12.44,0,0,1-.33,3.39,3.4,3.4,0,0,1-6.49.26,10.85,10.85,0,0,1-.53-3.05c-.21-9.66-.41-19.33-.54-29-.19-14.14-.45-28.29-.42-42.43,0-7.26.55-14.53.9-21.79.38-7.89,1-15.77,1.18-23.66.15-5.29-.09-10.59-.31-15.89a113.9,113.9,0,0,0-.88-12.11c-.68-4.59-1.72-9.15-2.83-13.66a6.18,6.18,0,0,0-4.74-4.53,34.63,34.63,0,0,0-7-1.22c-6.32-.22-12.66-.28-19-.22-10.39.11-20.79.18-31.16.64a71.53,71.53,0,0,0-13.19,2.13,8.52,8.52,0,0,0-6.6,6.45A69.72,69.72,0,0,0,52,38.41C51.68,48.6,51.86,58.8,51.86,69Z"/><path d="M77.3,95.62c-4,5.38-7.89,10.51-11.73,15.65-.31.41-.49.92-.77,1.35-1.26,1.93-3.11,2.51-4.74,1.51s-2-2.71-.92-4.64A56.67,56.67,0,0,1,63,103.43q4.37-5.88,9-11.57C75,88.12,80,88,83.39,91.58c1.49,1.58,2.87,3.27,4.26,4.94S90.36,99.89,92,102c1.44-2.62,2.92-4.86,4-7.28a52.84,52.84,0,0,1,8.07-13.59c3.21-3.8,5.84-8.08,8.8-12.09a29.13,29.13,0,0,1,3.7-4.21,6.4,6.4,0,0,1,8.31-.8,24.81,24.81,0,0,1,4.72,4,68.78,68.78,0,0,1,4.66,5.83,3.53,3.53,0,0,1-5,5,49.11,49.11,0,0,1-4.33-4.44c-1.18-1.26-2.31-2.57-3.71-4.14a102.63,102.63,0,0,0-8,10c-1.9,2.72-4,5.32-5.8,8.09-1.42,2.16-2.55,4.51-3.82,6.77-2.45,4.33-4.76,8.75-7.43,12.94-1.71,2.67-3.68,3.07-6.16,1.81a7,7,0,0,1-2-1.86c-3-3.65-6.06-7.34-9.09-11A18,18,0,0,0,77.3,95.62Z"/><path d="M61,65.81c-.44-7.05,6.49-13.62,15.84-9.31,2.6,1.2,4.76,5.76,4.12,8.78a27,27,0,0,1-2.06,6.16A8,8,0,0,1,68.07,75.3a25.75,25.75,0,0,1-4.8-2.83C61,70.81,60.84,68.29,61,65.81Zm6.72-.19a4,4,0,0,0,3.62,3.5c1.26.07,2.5-2.08,2.53-4.38,0-1.44-1.75-3-3.37-2.91S67.67,63.41,67.68,65.62Z"/></svg>