<svg id="Layer_1" data-name="Layer 1" xmlns="http://www.w3.org/2000/svg" viewBox="0 0 200 200"><path d="M144.28,50.81c-3.71,0-7.42,0-11.14,0-2.33,0-4.67,0-7,.07-6.31.21-12.63.55-19,.69-7.93.19-15.87.12-23.8.38-6,.19-12.06.73-18.07,1.11,0,4.64,0,9.44,0,14.25.07,5.13.33,10.27.34,15.4,0,5.6-.2,11.2-.26,16.8-.19,17.9-.52,35.79-.44,53.69a200,200,0,0,0,1.64,20.86c.75,6.7,5.68,10.92,12.4,11,5.71.05,11.45.38,17.12-.15,5.29-.5,10.57-.16,15.82-.56,6.39-.49,12.75-1.32,19.12-2,2.36-.24,4.73-.44,7.1-.66a3.72,3.72,0,0,1,3.76,2.46c.53,1.58,0,3.55-1.53,4.17a24.14,24.14,0,0,1-6.07,1.64q-7.83,1-15.7,1.54c-4.75.34-9.51.5-14.27.56-8.54.11-17.09.17-25.64.08a17.23,17.23,0,0,1-17.58-12.88,49.67,49.67,0,0,1-2-9.52,92.21,92.21,0,0,1-.57-10.24c-.2-16.13-.41-32.25-.45-48.37,0-7.72.39-15.44.51-23.16.12-6.83.13-13.66.15-20.5,0-4.51,0-9-.05-13.54V52.18H54.74c-1.76,0-3.53,0-5.29,0A3.17,3.17,0,0,1,46.22,49a3.12,3.12,0,0,1,3-3.35c4.09,0,8.19.11,12.29.15,2.78,0,5.57,0,8.33,0,.38-7.49,4-13.27,9.19-18.27C80.65,26,82.39,24.52,84.08,23a29.62,29.62,0,0,1,11.56-6.13A40.43,40.43,0,0,1,106.77,15a19.65,19.65,0,0,1,6.87.65c5,1.65,9,4.61,12.88,8.07a38.8,38.8,0,0,1,9.73,13.5,32.45,32.45,0,0,1,1.64,4.68,1.45,1.45,0,0,0,1.74,1.26c4.7-.2,9.41-.38,14.12-.5,1.61,0,3.22.06,4.82.15A3.58,3.58,0,0,1,162,46.37,3.53,3.53,0,0,1,158.51,50c-2.37.07-4.75,0-7.47,0,0,2,0,3.7,0,5.37,0,1,.16,2,.18,3,.23,9.63.35,19.27.7,28.9.24,6.37.81,12.72,1.23,19.08,0,.21,0,.41,0,.62.13,4.61.2,9.23.39,13.84.36,8.63.94,17.26,1.17,25.9.27,10,.31,19.93.35,29.89a31.55,31.55,0,0,1-.69,5.54,3.31,3.31,0,0,1-3.5,2.88,3.26,3.26,0,0,1-3-3.5c.09-7.25.37-14.51.26-21.77-.11-7.77-.56-15.53-.88-23.3-.27-6.57-.5-13.14-.86-19.7-.32-5.89-.81-11.78-1.19-17.66-.08-1.25,0-2.5,0-3.74-.1-9.5-.16-19-.33-28.49-.07-3.93-.4-7.86-.57-11.79C144.23,53.63,144.28,52.19,144.28,50.81Zm-13.63-7.22c-.41-1.31-.71-2.51-1.16-3.65a32.54,32.54,0,0,0-8.88-12.15,24.71,24.71,0,0,0-5.51-3.95c-2.64-1.29-5.32-2.4-8.58-2A78.45,78.45,0,0,0,98,23.1a22.77,22.77,0,0,0-11.23,6.23,24,24,0,0,1-2.47,2.37c-3.83,2.91-6.06,6.88-7.6,11.3a7.8,7.8,0,0,0,0,2.51Z"/><path d="M117.69,87.89c0-3.9,0-7.79,0-11.68a3.19,3.19,0,0,1,3.16-3.49,3.24,3.24,0,0,1,3.33,3.51c.12,7.42.21,14.84.34,22.26.15,8.61.16,17.22.53,25.83.29,6.88,1,13.75,1.56,20.61.47,5.42,1.17,10.82,1.66,16.24.2,2.2-.92,3.63-2.71,3.9a3.18,3.18,0,0,1-3.81-2.81,115.23,115.23,0,0,1-2-11.94c-.72-7.16-1.37-14.33-1.66-21.52-.34-8.18-.22-16.39-.37-24.58-.1-5.45-.31-10.89-.47-16.33Z"/><path d="M88.33,146.9q-.26-11.11-.5-22.23c-.12-5.55-.2-11.1-.35-16.64-.18-6.79-.38-13.58-.65-20.37-.16-3.93-.51-7.85-.68-11.78a3.18,3.18,0,0,1,3.19-3.61c1.92,0,3.12,1.43,3.24,3.6.43,8,1,15.92,1.36,23.88.3,6.52.36,13,.57,19.57.27,8.08.62,16.16.84,24.24.16,5.85.22,11.7.24,17.56a3.34,3.34,0,0,1-3.31,3.58,3.43,3.43,0,0,1-3.42-3.51c-.27-4.76-.5-9.52-.74-14.28Z"/></svg>