<svg id="Layer_1" data-name="Layer 1" xmlns="http://www.w3.org/2000/svg" viewBox="0 0 200 200"><defs><style>.cls-1{fill:none;}</style></defs><path class="cls-1" d="M160.19,50.32c-1.19,1.14-2.14,2.53-3.37,3.63-3.24,2.9-6.62,5.65-9.86,8.55-2,1.82-3.82,4-5.92,5.69-3.68,3-7.55,5.8-11.28,8.76-3.53,2.81-7,5.69-10.46,8.58-6.29,5.23-12.54,10.52-18.85,15.73-2.31,1.91-4.75,3.68-7.13,5.51q-3.88,3-7.74,6c-.59.46-1.17.93-1.79,1.43C91.73,120.57,99.4,127,107.35,133s16.23,11.76,24.54,17.74c1.54-5.42,2.88-10.4,4.39-15.34,3.18-10.35,6.36-20.69,9.71-31,2.2-6.75,4.69-13.39,7.06-20.08,1.53-4.35,3-8.72,4.62-13,2.62-6.86,5.42-13.66,8.06-20.52.92-2.39,1.59-4.88,2.38-7.33l-.29-.23C165.27,45.62,162.7,47.93,160.19,50.32Z"/><path class="cls-1" d="M79.93,84.2Q94.17,75,108.4,65.84c3.78-2.45,7.49-5,11.3-7.43,7.7-4.87,16-8.75,23.31-14.27,2.67-2,5.86-3.33,8.78-5,1.35-.77,2.65-1.62,4-2.44l-.2-.39q-72,23.16-142.09,52.07C27.37,92.24,41.27,96,55,100.92c3.44-2.38,7-4.93,10.67-7.38C70.37,90.38,75.15,87.29,79.93,84.2Z"/><path class="cls-1" d="M79.93,84.2Q94.17,75,108.4,65.84c3.78-2.45,7.49-5,11.3-7.43,7.7-4.87,16-8.75,23.31-14.27,2.67-2,5.86-3.33,8.78-5,1.35-.77,2.65-1.62,4-2.44l-.2-.39q-72,23.16-142.09,52.07C27.37,92.24,41.27,96,55,100.92c3.44-2.38,7-4.93,10.67-7.38C70.37,90.38,75.15,87.29,79.93,84.2Z"/><path class="cls-1" d="M75.38,111.17Q83,105.08,90.8,99.11c3.57-2.76,7.29-5.31,10.78-8.17,7.26-5.94,14.38-12,21.61-18,2.91-2.41,5.94-4.67,8.92-7,2.66-2.07,5.56-3.88,7.92-6.24a88.69,88.69,0,0,1,8.4-7.58c3.18-2.47,6-5.36,9-8.07l-.32-.35c-1.18.62-2.4,1.19-3.54,1.88-6,3.63-12,7.26-18,11S123.45,64.12,117.4,68c-6.47,4.09-13,8.18-19.39,12.34C90.79,85,83.62,89.71,76.43,94.43c-6.49,4.26-13,8.53-19.18,12.62,2.63,5.56,5.11,10.67,7.46,15.84,1.63,3.57,3,7.29,4.64,10.84,1.57,3.32,3.42,6.51,5.13,9.76.45.84.87,1.71,1.36,2.68.14-.27.21-.34.21-.42-.18-8.66-.34-17.31-.58-26a7.45,7.45,0,0,0-.81-3.38C73.48,114.33,73.52,112.65,75.38,111.17Z"/><path class="cls-1" d="M83.59,155.36l16.85-19.11-18-14.76C83.34,133,81.8,144.27,83.59,155.36Z"/><path class="cls-1" d="M160.19,50.32c-1.19,1.14-2.14,2.53-3.37,3.63-3.24,2.9-6.62,5.65-9.86,8.55-2,1.82-3.82,4-5.92,5.69-3.68,3-7.55,5.8-11.28,8.76-3.53,2.81-7,5.69-10.46,8.58-6.29,5.23-12.54,10.52-18.85,15.73-2.31,1.91-4.75,3.68-7.13,5.51q-3.88,3-7.74,6c-.59.46-1.17.93-1.79,1.43C91.73,120.57,99.4,127,107.35,133s16.23,11.76,24.54,17.74c1.54-5.42,2.88-10.4,4.39-15.34,3.18-10.35,6.36-20.69,9.71-31,2.2-6.75,4.69-13.39,7.06-20.08,1.53-4.35,3-8.72,4.62-13,2.62-6.86,5.42-13.66,8.06-20.52.92-2.39,1.59-4.88,2.38-7.33l-.29-.23C165.27,45.62,162.7,47.93,160.19,50.32Z"/><path class="cls-1" d="M83.59,155.36l16.85-19.11-18-14.76C83.34,133,81.8,144.27,83.59,155.36Z"/><path class="cls-1" d="M75.38,111.17Q83,105.08,90.8,99.11c3.57-2.76,7.29-5.31,10.78-8.17,7.26-5.94,14.38-12,21.61-18,2.91-2.41,5.94-4.67,8.92-7,2.66-2.07,5.56-3.88,7.92-6.24a88.69,88.69,0,0,1,8.4-7.58c3.18-2.47,6-5.36,9-8.07l-.32-.35c-1.18.62-2.4,1.19-3.54,1.88-6,3.63-12,7.26-18,11S123.45,64.12,117.4,68c-6.47,4.09-13,8.18-19.39,12.34C90.79,85,83.62,89.71,76.43,94.43c-6.49,4.26-13,8.53-19.18,12.62,2.63,5.56,5.11,10.67,7.46,15.84,1.63,3.57,3,7.29,4.64,10.84,1.57,3.32,3.42,6.51,5.13,9.76.45.84.87,1.71,1.36,2.68.14-.27.21-.34.21-.42-.18-8.66-.34-17.31-.58-26a7.45,7.45,0,0,0-.81-3.38C73.48,114.33,73.52,112.65,75.38,111.17Z"/><path class="cls-1" d="M79.93,84.2Q94.17,75,108.4,65.84c3.78-2.45,7.49-5,11.3-7.43,7.7-4.87,16-8.75,23.31-14.27,2.67-2,5.86-3.33,8.78-5,1.35-.77,2.65-1.62,4-2.44l-.2-.39q-72,23.16-142.09,52.07C27.37,92.24,41.27,96,55,100.92c3.44-2.38,7-4.93,10.67-7.38C70.37,90.38,75.15,87.29,79.93,84.2Z"/><path class="cls-1" d="M160.19,50.32c-1.19,1.14-2.14,2.53-3.37,3.63-3.24,2.9-6.62,5.65-9.86,8.55-2,1.82-3.82,4-5.92,5.69-3.68,3-7.55,5.8-11.28,8.76-3.53,2.81-7,5.69-10.46,8.58-6.29,5.23-12.54,10.52-18.85,15.73-2.31,1.91-4.75,3.68-7.13,5.51q-3.88,3-7.74,6c-.59.46-1.17.93-1.79,1.43C91.73,120.57,99.4,127,107.35,133s16.23,11.76,24.54,17.74c1.54-5.42,2.88-10.4,4.39-15.34,3.18-10.35,6.36-20.69,9.71-31,2.2-6.75,4.69-13.39,7.06-20.08,1.53-4.35,3-8.72,4.62-13,2.62-6.86,5.42-13.66,8.06-20.52.92-2.39,1.59-4.88,2.38-7.33l-.29-.23C165.27,45.62,162.7,47.93,160.19,50.32Z"/><path d="M177,23.85a17.42,17.42,0,0,0-5.05.58c-10.08,3-20.15,6-30.17,9.22-10.52,3.35-21,6.84-31.45,10.36-4.12,1.39-8.13,3.12-12.23,4.57-9.38,3.3-18.81,6.47-28.18,9.81-3.65,1.3-7.16,3-10.8,4.35-6.81,2.5-13.7,4.77-20.48,7.33-8.48,3.2-17,6.44-25.3,10-4,1.71-8.65,2.74-11.22,7.06v0l-.22,2.19.34.77a8.78,8.78,0,0,0,1.67,1.39,50.17,50.17,0,0,0,6.48,2.94c5.1,1.69,10.29,3.12,15.42,4.71,4.39,1.36,8.76,2.8,13.14,4.2,2.12.68,4.22,1.42,6.35,2,1.88.53,3.75.64,4.81,2.88,2.56,5.42,5.54,10.63,8.14,16,1.74,3.63,2.93,7.52,4.67,11.15,2.64,5.51,5.61,10.86,8.3,16.34,1.6,3.25,2.89,6.65,4.4,9.94,1.05,2.27,5.11,4.53,7.5,4A4.63,4.63,0,0,0,85.53,164c2.65-3.32,5.07-6.82,7.79-10.07,1.79-2.13,4-3.86,5.93-5.91,2.25-2.43,4.34-5,6.56-7.59,1.3,1,2.5,1.79,3.63,2.69,3.17,2.51,6.2,5.2,9.48,7.54s6.78,4.39,10.22,6.51a28.27,28.27,0,0,0,4.52,2.38,3.38,3.38,0,0,0,4.52-3.09,7.71,7.71,0,0,1,.13-1.53c1.69-6,3.32-12,5.15-17.93,3-9.91,6.12-19.8,9.34-29.65,2.13-6.49,4.7-12.84,6.77-19.35,1.93-6.08,3.88-12.11,6.4-18,2.24-5.23,4-10.65,6-16,2.32-6.32,4.49-12.7,7-19a22.69,22.69,0,0,0,1.65-7.38A3.47,3.47,0,0,0,177,23.85ZM13.47,88.38q70.07-29,142.09-52.07l.2.39c-1.32.82-2.62,1.67-4,2.44-2.92,1.67-6.11,3-8.78,5-7.32,5.52-15.61,9.4-23.31,14.27-3.81,2.42-7.52,5-11.3,7.43Q94.18,75,79.93,84.2c-4.78,3.09-9.56,6.18-14.3,9.34C62,96,58.4,98.54,55,100.92,41.27,96,27.37,92.24,13.47,88.38Zm61.19,28a7.45,7.45,0,0,1,.81,3.38c.24,8.65.4,17.3.58,26,0,.08-.07.15-.21.42-.49-1-.91-1.84-1.36-2.68-1.71-3.25-3.56-6.44-5.13-9.76-1.68-3.55-3-7.27-4.64-10.84-2.35-5.17-4.83-10.28-7.46-15.84,6.21-4.09,12.69-8.36,19.18-12.62C83.62,89.71,90.79,85,98,80.29,104.45,76.13,110.93,72,117.4,68c6-3.83,12.09-7.66,18.18-11.42s12-7.33,18-11c1.14-.69,2.36-1.26,3.54-1.88l.32.35c-3,2.71-5.85,5.6-9,8.07a88.69,88.69,0,0,0-8.4,7.58c-2.36,2.36-5.26,4.17-7.92,6.24-3,2.32-6,4.58-8.92,7-7.23,6-14.35,12.08-21.61,18-3.49,2.86-7.21,5.41-10.78,8.17q-7.76,6-15.42,12.06C73.52,112.65,73.48,114.33,74.66,116.41Zm8.93,39c-1.79-11.09-.25-22.4-1.19-33.87l18,14.76ZM165.73,50.83c-2.64,6.86-5.44,13.66-8.06,20.52-1.65,4.31-3.09,8.68-4.62,13-2.37,6.69-4.86,13.33-7.06,20.08-3.35,10.29-6.53,20.63-9.71,31-1.51,4.94-2.85,9.92-4.39,15.34-8.31-6-16.57-11.68-24.54-17.74s-15.62-12.47-23.56-18.86c.62-.5,1.2-1,1.79-1.43q3.86-3,7.74-6c2.38-1.83,4.82-3.6,7.13-5.51,6.31-5.21,12.56-10.5,18.85-15.73,3.47-2.89,6.93-5.77,10.46-8.58,3.73-3,7.6-5.73,11.28-8.76,2.1-1.73,3.88-3.87,5.92-5.69,3.24-2.9,6.62-5.65,9.86-8.55,1.23-1.1,2.18-2.49,3.37-3.63,2.51-2.39,5.08-4.7,7.63-7l.29.23C167.32,46,166.65,48.44,165.73,50.83Z"/></svg>