<svg id="Layer_1" data-name="Layer 1" xmlns="http://www.w3.org/2000/svg" viewBox="0 0 200 200"><defs><style>.cls-1{fill:none;}</style></defs><path d="M147.81,56.07c-.51-.21-1.06-.27-1.35-.57-4.2-4.27-9-8-12.12-13.22A12.07,12.07,0,0,1,132.81,38a4.15,4.15,0,0,1,2.27-4.53c1.84-1,3.7-1.14,5.43.17,1.21.91,2.29,2,3.59,3.15.84-1.59,1.58-3.07,2.4-4.51,1.46-2.54,3-3.39,5.17-2.95a5.15,5.15,0,0,1,4.46,5,16,16,0,0,1-.73,6.38c-1.94,4.9-4.3,9.64-6.53,14.42C148.69,55.43,148.21,55.69,147.81,56.07Z"/><path class="cls-1" d="M162.29,118.63l3.51,3.94c14.18-9.14,24-30.81,19.57-46.6l-5.87.22c-.78,8.31.16,16.38-3.55,23.53C172.38,106.59,168.94,113.66,162.29,118.63Z"/><path class="cls-1" d="M184.81,68.21c-3.43-15.32-1.09-30.36-1.39-45.44-1.3.38-2.23.61-3.13.94s-1.71.76-2.45,1.09a227.78,227.78,0,0,0,1.48,43.6Z"/><path class="cls-1" d="M54.73,152.55c3,5.36,4.51,11.49,6.73,17.43,4.53-2.19,9.05-4.59,12.91-8.1,1.51-1.38,3.09-2.68,4.7-3.93,7.14-5.56,15.28-9.52,23-14.13,9.93-5.91,19.92-11.63,30.84-15.58,3.12-1.12,6.09-2.67,9.11-4-.95-2.87-2-5.31-2.55-7.87a47.13,47.13,0,0,1-1-8.21c-.55-13.68,3.45-25.84,12.6-36.12a65.87,65.87,0,0,1,7.57-7.18A32.81,32.81,0,0,1,165,61a40.82,40.82,0,0,1,5.4-1.84c-2-14.78-.65-29.36-.42-44.08-15.06,6.1-30.63,8.1-46.21,9.46-1,6.7-1.9,13-2.77,19.25a42.87,42.87,0,0,1-6.09,17.2,58.78,58.78,0,0,1-9.41,11.77A131.18,131.18,0,0,1,81.57,90.58c-8.7,5.08-17.86,9.32-26.38,14.79a140,140,0,0,0-18.67,14.08c-3.35,3-6.55,6.23-10.15,9.67a66.51,66.51,0,0,1,16.77,9.32A46.6,46.6,0,0,1,54.73,152.55Z"/><path class="cls-1" d="M138.33,134.29c-16.61,6-31.21,15.88-46.54,24.34A72.05,72.05,0,0,0,75.68,171a3.76,3.76,0,0,0,.33.81,8.16,8.16,0,0,0,.74.71c5.5-3.7,10.79-7.65,16.45-11,7.33-4.31,14.92-8.19,22.47-12.13q5.72-3,11.65-5.55a115.48,115.48,0,0,1,14.05-5.55c7-2,12.13-7.15,18.81-10.19l-4-4.22A62.67,62.67,0,0,1,138.33,134.29Z"/><path class="cls-1" d="M66.6,176.05c-3.87,2.48-7.68,5-11.51,7.58l.29.56,14.17-7C69.07,174.79,67.73,175.33,66.6,176.05Z"/><path class="cls-1" d="M158.13,112.2c7.49-7.33,12.79-15.73,13.18-26.62a88.3,88.3,0,0,0-.7-17.8c-17.19,5.24-30.48,33.07-21.31,51.76,1.35-1,2.72-2,4-3C155,115.12,156.59,113.71,158.13,112.2Z"/><path class="cls-1" d="M51.71,166.47c-1.47-8.07-6.45-14.09-11.7-19.86-3.76-4.14-8.83-6.57-13.9-8.81a21.72,21.72,0,0,0-3.81-1,3.35,3.35,0,0,0-4.21,1.86c-2,4.33-4.34,8.59-5.73,13.12-2.4,7.82-1,14.92,4.47,21.49s12.92,8.53,20.88,8.23c5.78-.22,11.15-2.64,16.12-6.45C53.12,172.25,52.25,169.39,51.71,166.47Z"/><path d="M190.63,15.63c-1.25-3.48-3.55-4.24-6.78-2.33-1.7,1-3.39,2.06-5.55,3.37.11-1.82.17-3,.27-4.16.08-.84.31-1.67.32-2.5.06-4.94-3.6-7.18-8-4.93-1.18.6-2.31,1.29-3.5,1.85a73.6,73.6,0,0,1-19.57,5.86c-6.88,1.15-13.69,2.61-20.68,3-2.28.12-4.57.06-6.85.23-3.53.25-4.85,1.43-4.72,5,.28,7.5-.74,14.84-2,22.2a42.32,42.32,0,0,1-12.06,22.87C90.77,76.92,77.77,84.31,64.38,91.27c-11.3,5.88-22.14,12.58-31.58,21.31-7.24,6.7-14.73,13.24-20.43,21.32C6,143,2.45,153.11,4.17,164.46a21.69,21.69,0,0,0,4.31,10.18c3.25,4.21,6.47,8.4,11.42,10.79a26.79,26.79,0,0,0,4.64,1.94c2.81.72,5.51,1.42,7.57,3.75.72.81,2.11,1.07,3.24,1.47,1.64.6,3.31,1.15,4.93,1.89,8.54-.65,16.81-4.92,25.42-6.24q5.72-2.62,11.37-5.35a29.74,29.74,0,0,0,4.36-3.18c2.6-1.91,5.12-4,7.84-5.68q11.58-7.29,23.31-14.34c2.15-1.29,4.74-1.85,6.83-3.21,7-4.57,15.07-7,22.77-9.79,8-2.9,14.53-7.85,21.74-11.84a12.5,12.5,0,0,0,2.34-1.68c4.51-4.14,9.37-8,13.41-12.54A58.68,58.68,0,0,0,194,88.13a16.94,16.94,0,0,0-.07-4c-1-9.43-2.31-18.85-3.17-28.3a130,130,0,0,1-.06-13.68c.15-7.8.41-15.59.55-23.39A8.84,8.84,0,0,0,190.63,15.63ZM37.71,181.52c-8,.3-15.25-1.52-20.88-8.23S10,159.62,12.36,151.8c1.39-4.53,3.72-8.79,5.73-13.12a3.35,3.35,0,0,1,4.21-1.86,21.72,21.72,0,0,1,3.81,1c5.07,2.24,10.14,4.67,13.9,8.81,5.25,5.77,10.23,11.79,11.7,19.86.54,2.92,1.41,5.78,2.12,8.6C48.86,178.88,43.49,181.3,37.71,181.52Zm17.67,2.67-.29-.56c3.83-2.53,7.64-5.1,11.51-7.58,1.13-.72,2.47-1.26,3,1.18ZM61.46,170c-2.22-5.94-3.78-12.07-6.73-17.43a46.6,46.6,0,0,0-11.59-14.11,66.51,66.51,0,0,0-16.77-9.32c3.6-3.44,6.8-6.63,10.15-9.67a140,140,0,0,1,18.67-14.08c8.52-5.47,17.68-9.71,26.38-14.79A131.18,131.18,0,0,0,105.5,72.71a58.78,58.78,0,0,0,9.41-11.77A42.87,42.87,0,0,0,121,43.74c.87-6.28,1.8-12.55,2.77-19.25C139.35,23.13,154.92,21.13,170,15c-.23,14.72-1.58,29.3.42,44.08A40.82,40.82,0,0,0,165,61a32.81,32.81,0,0,0-6.37,3.89A65.87,65.87,0,0,0,151.06,72c-9.15,10.28-13.15,22.44-12.6,36.12a47.13,47.13,0,0,0,1,8.21c.56,2.56,1.6,5,2.55,7.87-3,1.35-6,2.9-9.11,4-10.92,3.95-20.91,9.67-30.84,15.58-7.73,4.61-15.87,8.57-23,14.13-1.61,1.25-3.19,2.55-4.7,3.93C70.51,165.39,66,167.79,61.46,170Zm109.85-84.4c-.39,10.89-5.69,19.29-13.18,26.62-1.54,1.51-3.18,2.92-4.84,4.3-1.27,1.07-2.64,2-4,3-9.17-18.69,4.12-46.52,21.31-51.76A88.3,88.3,0,0,1,171.31,85.58Zm-29.94,52.73a115.48,115.48,0,0,0-14.05,5.55q-5.92,2.55-11.65,5.55c-7.55,3.94-15.14,7.82-22.47,12.13-5.66,3.33-11,7.28-16.45,11a8.16,8.16,0,0,1-.74-.71,3.76,3.76,0,0,1-.33-.81,72.05,72.05,0,0,1,16.11-12.37c15.33-8.46,29.93-18.31,46.54-24.34a62.67,62.67,0,0,0,17.88-10.39l4,4.22C153.5,131.16,148.42,136.31,141.37,138.31Zm24.43-15.74-3.51-3.94c6.65-5,10.09-12,13.66-18.91,3.71-7.15,2.77-15.22,3.55-23.53l5.87-.22C189.77,91.76,180,113.43,165.8,122.57Zm19-54.36-5.49.19a227.78,227.78,0,0,1-1.48-43.6c.74-.33,1.58-.77,2.45-1.09s1.83-.56,3.13-.94C183.72,37.85,181.38,52.89,184.81,68.21Z"/><path class="cls-1" d="M31,193.55a5.9,5.9,0,0,0-.81-.09Z"/><path class="cls-1" d="M31.54,193.66a24.44,24.44,0,0,0,8.65.82L31,193.55A4,4,0,0,1,31.54,193.66Z"/></svg>