<svg id="Layer_1" data-name="Layer 1" xmlns="http://www.w3.org/2000/svg" viewBox="0 0 200 200"><path d="M141,29.92C146.14,33.44,151,36.85,156,40.13A36.84,36.84,0,0,1,166.59,50.3c2.58,3.84,5.58,7.38,8.27,11.15,5.06,7.09,7.47,15.15,8.71,23.7,2.31,15.94,2,31.6-4.63,46.58-4.3,9.76-10.56,18.41-17.28,26.59-6.58,8-16,12.41-25,17.12-15.25,8-31.71,10.62-48.68,9.16-7.37-.64-14.6-2.94-21.89-4.48-10.69-6.18-22.25-11.11-30.3-21.07a10.22,10.22,0,0,0-1.21-1.33C29.28,153.14,25.9,147.35,23,141,14.39,122,13.56,102.66,18.71,82.8c1-4,2.44-8,3.54-12A52.27,52.27,0,0,1,34.92,48.39c5.72-6.07,10.59-13.06,18-17.36a78.94,78.94,0,0,1,10-5,17.41,17.41,0,0,1,6.56-1,4.21,4.21,0,0,1,4.17,4.38A4.23,4.23,0,0,1,70.13,34C60.73,35.51,53.87,41,48,48c-3.15,3.78-6.48,7.41-9.62,11.2a35.71,35.71,0,0,0-6.42,12.72c-2.53,8.43-5.46,16.77-6.23,25.62-1.11,12.69.38,24.9,5.45,36.78,5.78,13.55,15.42,23.14,28.13,30,.26.14.53.28.78.43,17.25,10.6,35.77,11.1,54.9,7,12.88-2.77,23.72-9.62,34.19-17.13a27.76,27.76,0,0,0,5.79-6.19c3.18-4.32,6.19-8.79,9.09-13.3a51.94,51.94,0,0,0,8.46-22.86c1.12-10.48,1.13-20.83-1-31.19-1.33-6.49-4.56-11.94-8.46-17.1-2.16-2.85-4.47-5.59-6.72-8.38a15.14,15.14,0,0,0-2.32-2.7c-7.52-5.67-15.13-11.19-23.86-14.91a9.92,9.92,0,0,0-1.57-.34c-.07,3.63,1.52,6.67,2.67,9.81s2.42,6.11,3.44,9.22c1.13,3.41-.05,6-2.85,6.89s-5.2-.37-6.26-3.52c-2.7-8.05-5.48-16.09-7.79-24.25-2.07-7.33.56-11.66,8-13.91,6.57-2,13.19-3.82,19.81-5.62,3.69-1,6.62.5,7.52,3.65s-.91,5.65-4.67,6.9c-2.12.71-4.25,1.4-6.37,2.13C141.79,29.08,141.6,29.37,141,29.92Z"/><path d="M96.29,30.49a4.5,4.5,0,0,1-4.36-4.72,4.55,4.55,0,0,1,4.66-4.45,4.59,4.59,0,1,1-.3,9.17Z"/></svg>