<svg id="Layer_1" data-name="Layer 1" xmlns="http://www.w3.org/2000/svg" viewBox="0 0 200 200"><path d="M103.75,193.08A133.51,133.51,0,0,1,86,190.91c-5.83-1-10.15-4.06-13.88-8.16a12.76,12.76,0,0,1-2.62-5.67,53.26,53.26,0,0,1-.54-17.5c.56-4.94,1.29-9.86,2.13-14.76.94-5.47,2-10.91,3.15-16.33,1.91-9.13,3.57-18.34,6-27.33,1.6-5.9,4.37-11.5,6.65-17.22,1.23-3.08,2.59-6.1,3.79-9.19A14,14,0,0,1,100.15,66a6.13,6.13,0,0,1,6.12,1.42,25,25,0,0,1,4.49,5.87c3,5.85,5.94,11.75,8.44,17.83,1.64,4,2.47,8.32,3.67,12.5.63,2.19,1.22,4.39,1.93,6.56q2.06,6.18,4.24,12.33c1.26,3.5,2.85,6.9,3.88,10.47,1.52,5.2,2.68,10.51,4,15.78.24,1,.32,2,.5,3.06a52.4,52.4,0,0,1-.45,21.6,19.36,19.36,0,0,1-7.08,11.23c-1.67,1.3-3.14,2.86-4.79,4.2a16.46,16.46,0,0,1-9.1,3.24C111.9,192.49,107.82,192.76,103.75,193.08Zm26.84-31.27.39,0c-.57-4.3-1-8.63-1.73-12.9A117.51,117.51,0,0,0,124,130.39c-2.1-5.89-4.38-11.72-6.39-17.65-1.35-4-2.38-8-3.54-12a47.08,47.08,0,0,0-2-6.71c-2.75-6.08-5.73-12.07-8.67-18.07a16.3,16.3,0,0,0-1.67-2.42c-.56-.78-1.3-1-2-.23a17.2,17.2,0,0,0-3,3.84c-2.34,5.08-4.53,10.23-6.62,15.42a86.44,86.44,0,0,0-3.89,11c-1.59,6.32-2.81,12.75-4.12,19.14-1.45,7-3,14.1-4.2,21.19-.94,5.35-1.5,10.77-2.23,16.16a52.91,52.91,0,0,0,.15,14.87,6,6,0,0,0,2.36,4.37c1.7,1.18,3.3,2.5,5,3.64a7.21,7.21,0,0,0,2.33.79,37.81,37.81,0,0,0,4,.79,88.35,88.35,0,0,0,11.06,1.27c4.85,0,9.7-.49,14.55-.86a9.12,9.12,0,0,0,5.62-2c1.55-1.38,3.2-2.66,4.63-4.15a18.87,18.87,0,0,0,3.15-4.15C130.68,170.58,130.8,166.21,130.59,161.81Z"/><path d="M97.9,10.54c2.18.56,4.34,1.16,6.53,1.68,1.44.35,2.9.58,4.35.88a2.09,2.09,0,0,1,.85.36c4.52,3.64,8.61,7.57,10,13.57a31,31,0,0,1,1.18,8.73c-.38,6.8-2.78,12.58-8.25,16.85-1.86,1.46-3.64,3.17-5.74,4.17-5.1,2.43-10.29,1.61-15.11-.87-2.33-1.21-4.26-3.2-6.34-4.88-.64-.52-1.14-1.21-1.75-1.76-4.92-4.39-5.69-10.08-5.1-16.2.33-3.39.57-6.81,2-10a21.08,21.08,0,0,1,13.83-12,1.87,1.87,0,0,1,.46-.09h3ZM84.81,35.35c0,4.2.87,7.11,3.45,9.49S93,50.05,96.65,51c3.33.88,6.55,1.2,9.36-1.37a38.72,38.72,0,0,0,3.2-2.93c1.2-1.35,2.65-2.7,3.23-4.32,2.23-6.22,1.92-12.31-1.79-18a4.91,4.91,0,0,0-1.11-1.47c-2.41-1.63-4.27-4.27-7.67-4.08a3.5,3.5,0,0,1-1.68-.75,5.9,5.9,0,0,0-5.09-.37,13.64,13.64,0,0,0-9.27,10.05A59.72,59.72,0,0,0,84.81,35.35Z"/></svg>