<svg id="Layer_1" data-name="Layer 1" xmlns="http://www.w3.org/2000/svg" viewBox="0 0 200 200"><path d="M69.93,161.26q9.67,0,19.34,0c6.69,0,13.39.14,20.08-.08,4.08-.14,8.14-.82,12.21-1.32,2.35-.29,4.84-.34,7-1.19a24.76,24.76,0,0,0,7.17-4.26c1.11-1,1.49-3,1.74-4.65a120.22,120.22,0,0,0,.94-18.49c0-10.13.48-20.28.1-30.39-.24-6.35,0-12.79-1.55-19.07a24.49,24.49,0,0,1-.13-3.11c-.63-6-1.33-11.94-2-17.92-.43-4.17-.81-8.36-1.1-12.55a3.2,3.2,0,0,1,2.31-3.35,3.14,3.14,0,0,1,3.82,1,10.33,10.33,0,0,1,2,3.71c.6,2.72.81,5.52,1.2,8.28.34,2.32.85,4.61,1,6.94.35,4.65.46,9.32.81,14,.25,3.36.75,6.7,1.06,10.06.13,1.49.05,3,.05,4.51.07,11.78.2,23.56.16,35.35,0,5.08-.18,10.17-.61,15.24a94.05,94.05,0,0,1-1.78,11.17,9.57,9.57,0,0,1-5.07,6.4c-3,1.65-5.89,3.64-9.09,4.65a48,48,0,0,1-11,1.75c-6.62.46-13.27.78-19.91.81q-24.69.09-49.38-.17c-4.39,0-8.71-.8-12.51-3.54a17.17,17.17,0,0,1-7.58-14.11C29,143,29,135.17,28.83,127.32s-.42-15.9-.29-23.85c.11-6.37.76-12.73,1.13-19.1.1-1.71,0-3.43,0-5.14.29-7,.17-14,1.05-20.82S35,46.18,42.15,43.59a64.11,64.11,0,0,1,21.34-3.65c7.09-.1,14.16-1,21.25-1.4,5.09-.25,10.19-.16,15.28-.14,3.53,0,7.08,0,10.59.34,3.25.28,6.48.88,9.7,1.48a3.11,3.11,0,0,1,2.5,3.73,3.15,3.15,0,0,1-3.5,2.64,126.06,126.06,0,0,0-22.06-.7c-4.72.18-9.45.18-14.16.38-8.45.37-16.9.82-25.35,1.26A40.94,40.94,0,0,0,42.89,51.3a9,9,0,0,0-3.32,3.55c-2.2,3.57-2,7.66-2.09,11.65-.2,6.11-.11,12.25-.55,18.34-.86,11.82-1.36,23.63-1.11,35.48.2,9.09.27,18.18.49,27.27a55.27,55.27,0,0,0,.76,5.7c.5,3.87,5.55,7.5,9,7.6q11.91.33,23.82.61Z"/><path d="M86.65,100.64c5.83,0,11.55,0,17.26,0,3.16,0,6.32-.33,9.48-.42a11.07,11.07,0,0,1,2.91.38,3,3,0,0,1,2.5,3,3.16,3.16,0,0,1-2.31,3.31,31.38,31.38,0,0,1-10.88,1.63c-5.82-.06-11.65-.06-17.48-.08-.46,0-.91,0-1.74,0,0,3.14,0,6.16,0,9.19,0,4.73.11,9.46.18,14.19,0,2.22.25,4.45.08,6.65a3.19,3.19,0,0,1-3.33,3.06,3.34,3.34,0,0,1-3.3-3.13c-.31-2.3-.57-4.63-.65-6.95-.18-5.71-.28-11.42-.33-17.13,0-1.9.22-3.8.35-5.93-4.31-.16-8.45-.22-12.57-.51-4.65-.33-9.29-.83-13.93-1.33a3.21,3.21,0,0,1-.36-6.31,16.45,16.45,0,0,1,3.7-.4q8.4.19,16.79.53c2.06.08,4.11.3,6.35.47v-4c0-4.63.08-9.26,0-13.89,0-2.91-.24-5.81-.32-8.71a11.49,11.49,0,0,1,.27-2.48,3.24,3.24,0,0,1,6.31-.09A11.33,11.33,0,0,1,86,74q.3,12.93.58,25.85A6.14,6.14,0,0,0,86.65,100.64Z"/></svg>