<svg id="Layer_1" data-name="Layer 1" xmlns="http://www.w3.org/2000/svg" viewBox="0 0 200 200"><path d="M151.19,18.67a26.31,26.31,0,0,0,5-.05c5.16-1.09,10.1,2.88,10.32,9.23a67.63,67.63,0,0,1,0,8.18c-1,11.45.23,22.77,1.76,34.09,1.43,10.61,4.35,21,3.68,31.89-.47,7.62-2.2,14.68-6.59,21.13a59.91,59.91,0,0,1-24.05,20.7,204.17,204.17,0,0,0-39.71,24.85c-7.14,5.76-14.34,11.46-21.68,16.95-8.93,6.68-18.91,11-30.21,10.91-6.68-.05-12.86-1.77-15.82-9-.42-1-1.87-1.84-3-2.35-15.57-6.82-21-21.87-17.58-37.24a37.1,37.1,0,0,1,7.11-14.55c9.18-12,20.24-22,32.39-30.85,9.49-6.9,19-13.81,28.6-20.53,9.26-6.47,13.29-15.43,13.82-26.48.62-12.75,1.65-25.48,2.39-38.23.35-5.86,5.1-10.67,10.73-9.47,9.94,2.1,19.63-.29,29.42-.68.68,0,1.35-.22,2-.3,7.05-.78,10.16,1.69,11,8.7C150.8,16.42,151,17.23,151.19,18.67ZM40.46,129.4c12.8,7.46,19.9,18.35,24.34,31.72,16.52-13.35,32.44-26.61,50.79-37-5-11.55-5.87-23.28-2.29-34.74,3.66-11.66,11.36-20.43,23.39-24.76-.25-3.1-.47-5.73-.65-8.07h-29c-.29,2.13-.42,3.63-.71,5.11-1.5,7.68-2.74,15.38-8.59,21.43C91.19,89.87,83.36,95,75.91,100.62c-10,7.59-20,15.21-30,22.95C44,125.09,42.49,127.21,40.46,129.4ZM149.74,30.18c-.24,4-.74,7.39-.6,10.74.55,12.58,1.3,25.14,2,37.71.37,6.79,1.06,13.58,1.08,20.38,0,13.84-6.19,24.1-18.53,30.51-2.11,1.1-4.31,2-6.43,3.11a100,100,0,0,0-9.44,5q-10.23,6.68-20.19,13.77-8.49,6.06-16.7,12.53c-6.41,5.05-12.65,10.32-19,15.44-1.59,1.28-3.34,2.35-5.89,4.13a41.32,41.32,0,0,0,16.3-6.93c8.3-6.48,16.59-13,25-19.27,6.26-4.68,12.52-9.43,19.19-13.46,7-4.21,14.5-7.49,21.65-11.41a49.94,49.94,0,0,0,9.69-6.51C154,120.38,159,114,160.15,105.35a60.64,60.64,0,0,0-.81-18.77c-3.15-17.27-5.67-34.59-4.44-52.24a25.87,25.87,0,0,0-.32-3.76ZM54.62,169.8A30.55,30.55,0,0,1,53,165.27c-1.3-7.69-5.57-13.81-10.58-19.38a26.45,26.45,0,0,0-7.8-5.41c-2-1-4-.36-5.68,1.8-4.86,6.35-6,17.14-2.15,24.11,3.6,6.59,12.23,10.47,18.56,8.06A101.74,101.74,0,0,0,54.62,169.8Zm83-92.73c-14.6,7.6-19.7,29.19-10.31,41.58,5.88-3.12,10.7-7.07,11.57-14.27C140,95.39,138.78,86.54,137.63,77.07Zm-.17-56.14-28.55,1.6a24.85,24.85,0,0,0-.39,2.51,27.12,27.12,0,0,0,.21,2.78A72.5,72.5,0,0,0,137,26.56C137.15,24.74,137.28,23.12,137.46,20.93Zm-1.79,18.49-28.1.93c.11,1.49.22,2.89.32,4.34a116.5,116.5,0,0,0,27.78-.79Z"/></svg>