<svg id="Layer_1" data-name="Layer 1" xmlns="http://www.w3.org/2000/svg" viewBox="0 0 200 200"><path d="M41.06,125.61c1.77-4.2,3.45-8.2,5.33-12.7-1.86-1.22-3.55-2.37-5.28-3.45C29.16,102,21.35,91.57,18.19,77.82a44.09,44.09,0,0,1-.76-8.53C16.85,49.25,25.19,33,39,19.18c5.41-5.42,12.09-7.74,19.73-7.79a65.77,65.77,0,0,1,29.33,6.7c3,1.47,5.73,3.7,9,5.87,1.75-1.06,3.76-2.46,5.92-3.55,8.32-4.19,17-6.74,26.49-6,4.18.35,8.41.14,12.6.38,1.69.1,3.72.25,4.94,1.21,5.19,4.08,11.17,7.17,14.94,13.08A94.7,94.7,0,0,1,173.45,54c5.4,18.91,2.49,45.37-21.27,58.92-1,.56-1.89,1.24-3.26,2.16,4.34,8.82,8.84,17.34,13.85,25.67S172,157.85,177,167.43c1.81-5.17,2-9.57,2.44-14,.35-4,.69-8,1.09-12a12.53,12.53,0,0,1,.6-2.78,5.78,5.78,0,0,1,11.27.23,17.71,17.71,0,0,1,.56,5.66q-1.16,19.45-2.51,38.9c-.38,5.41-3.52,8.08-8.77,7.17a61.77,61.77,0,0,1-11-3c-7.52-2.81-14.95-5.87-22.37-8.95a51.35,51.35,0,0,1-7.68-3.82c-4.49-2.8-5.74-5.7-4.24-8.84s4.49-4.07,9.48-2.39c4.35,1.45,8.64,3.06,13,4.59.71.25,1.45.4,3.11.86-1.92-6.36-5.23-11.36-8-16.58s-6-10.23-8.79-15.46-5.46-10.91-8.25-16.54c-7.59.78-15.06,2-22.19-1-6.81-2.92-13.54-6-21.49-9.58-9.82,5.63-21.24,11-35.18,6.63-1.59,4.55-3.06,8.77-4.78,13.72,9,2.92,17.5,5.69,26,8.43,1.82.59,3.75.9,5.49,1.66,3.63,1.56,5.2,5,4,8.4a6.54,6.54,0,0,1-8.22,4.39c-4.62-1.23-9.14-2.81-13.68-4.31-5.25-1.73-10.48-3.53-16.35-5.51-.76,2.05-1.5,3.93-2.17,5.83-3.5,10.11-7,20.24-10.5,30.34a31.47,31.47,0,0,1-2.6,5.73c-2.07,3.47-5.52,4.5-8.84,2.9a6.58,6.58,0,0,1-3.4-8.68c2.53-6.6,5.51-13,7.91-19.68,2.33-6.47,4.18-13.12,6.21-19.69.1-.32-.08-.73-.21-1.73-2.86-1.13-6-2.32-9.16-3.64-5.46-2.3-10.92-4.62-16.33-7.06-4.49-2-5.87-4.48-4.66-7.83,1.26-3.5,4.32-4.67,9.09-3,6.87,2.34,13.66,4.94,20.5,7.4C37.78,124.66,39.24,125.05,41.06,125.61ZM87.78,35.84c-4.08-5.37-8.68-9.18-14.5-10.65C68.54,24,63.49,24,58.57,23.6A13.57,13.57,0,0,0,46.47,29,165.08,165.08,0,0,0,35.39,44.25c-6,9.77-6.67,20.81-4.79,31.61,2.23,12.89,11.13,21.2,22.71,26.24,11.22,4.88,22.25,4.43,32.42-4.16C74.44,77,77.32,56.33,87.78,35.84ZM103,99.31c9,6.42,18.43,10.3,29.56,8.17,7.28-1.4,12.44-6.36,18.13-10.51,11.77-8.58,13.63-26.79,10.38-37.08-2.33-7.37-5-14.72-9.7-21.24C148,34,143,31.59,139,27.86a4,4,0,0,0-2.14-.69c-9.65-1-19.1-.57-27.8,4.37a38.38,38.38,0,0,0-4.37,3.39C117.23,57,118.15,78.19,103,99.31ZM94.68,85.69c7.35-9.52,7.83-27,.92-36.19C91.58,61.6,89.34,73.23,94.68,85.69Z"/></svg>