<svg id="Layer_1" data-name="Layer 1" xmlns="http://www.w3.org/2000/svg" viewBox="0 0 200 200"><path d="M23.43,157.1c2.78-1.06,4.94-1.82,7.06-2.69,5.83-2.41,11.72-4.68,17.42-7.38,2.79-1.32,5.23-3.42,7.76-5.27,1.1-.81,1.94-2,3-2.78a5.94,5.94,0,0,1,7.61.4c2.07,2,2.75,5.25.76,7.52-4.92,5.59-9.71,11.31-17.24,13.91-8.56,3-16.9,6.58-25.35,9.87a31.06,31.06,0,0,1-5.6,1.9c-5.89,1-10-2.23-9.34-8.07,1.1-10.18,2.61-20.34,4.32-30.45a17.45,17.45,0,0,1,3.54-7.32c4.92-6.4,10-12.72,15.3-18.76,7-8,14.3-15.73,21.63-23.43C70.66,67.4,87.11,50.39,103.41,33.23c3.25-3.43,6.13-7.22,9.09-10.91a47,47,0,0,1,14.64-11.84c6.8-3.69,13.66-2.75,19.66,2.29,3.92,3.3,8,6.46,11.9,9.73,6.91,5.74,11.89,17.87,3.41,27.21a22.2,22.2,0,0,1-1.48,1.85c-12.43,11-21,25.61-34.52,35.65-4.65,3.46-7.89,8.77-12,13-5.6,5.8-11.36,11.45-17.14,17.07a6.21,6.21,0,0,1-8.12.53,5.89,5.89,0,0,1-1-8.45,81.09,81.09,0,0,1,7.44-8.4c3.59-3.63,7.71-6.79,11-10.66,6.79-8,14.42-15.09,22-22.23,3.29-3.08,6-6.82,9-10.14q5.82-6.29,11.88-12.35c7.12-7.11,6.91-10-1-15.93-2.84-2.11-5.37-4.64-8.12-6.88-3.83-3.12-5-3.35-8.88-.58A55.53,55.53,0,0,0,122.31,30c-11.75,13-23.14,26.38-35,39.29C78.75,78.52,69.65,87.29,60.8,96.29c-8,8.13-16.51,15.78-22.77,25.51a41.82,41.82,0,0,1-7.23,8.57,15.6,15.6,0,0,0-5.45,10.71C24.86,146.14,24.15,151.17,23.43,157.1Z"/><path d="M130.38,190.09c-17.56,0-35.11-.17-52.66,0-18.71.23-37.43.82-56.14,1.25a35.51,35.51,0,0,1-4.73-.08c-3.35-.39-5.59-2.8-5.58-5.8a6,6,0,0,1,5.59-5.86c5.89-.51,11.8-.94,17.7-1,27.61-.39,55.22-.62,82.83-.95,21.49-.27,43-.61,64.48-.91a39.35,39.35,0,0,1,5.32.11A6.27,6.27,0,0,1,193,182.6a6.52,6.52,0,0,1-5.21,6.92,26.83,26.83,0,0,1-5.31.22q-26,0-52.08,0Z"/><path d="M77.37,134.45a5.79,5.79,0,0,1-6-5.86,6.06,6.06,0,0,1,6.09-5.89,5.85,5.85,0,0,1,5.62,5.68A5.52,5.52,0,0,1,77.37,134.45Z"/></svg>