<svg id="Layer_1" data-name="Layer 1" xmlns="http://www.w3.org/2000/svg" viewBox="0 0 200 200"><path d="M139.43,188.21V50c-2.76,0-5.27.14-7.76-.06a9,9,0,0,1-4.62-1.28,4.32,4.32,0,0,1-1.28-3.79c.45-1.29,2-3,3.23-3.08a83.15,83.15,0,0,1,14.29.15c3.57.39,4.59,2.38,4.61,6.9q.09,22.89.1,45.78c0,30.51-.13,61,0,91.55,0,11.42-2.93,11.11-11,11-16.36-.16-32.71,0-49.07-.06-6.74,0-8.05-1.2-8.06-8q-.12-49.9-.09-99.82c0-13.24.07-26.47.14-39.71,0-6.58,1.47-8,8.17-8,3.31,0,6.62-.07,9.93,0,3.49.08,5.45,1.61,5.44,4.08s-2,4.05-5.47,4.22c-2.92.14-5.85,0-8.64,0-1.21,4-1.67,127.42-.64,138C92.4,189.16,131.92,189.52,139.43,188.21Z"/><path d="M119.26,20.37V30q0,65.6,0,131.19a40.28,40.28,0,0,1-.1,4.4,3.79,3.79,0,0,1-4,3.7c-2.37,0-3.69-1.46-4-3.77a32.87,32.87,0,0,1-.15-3.85l.09-117.4V18.75c-2.3,2-3.61,3.11-4.82,4.3-2.75,2.7-5.38,5.53-8.2,8.17-2.28,2.13-4.65,2.26-6.36.66s-1.73-4.13.4-6.32C98.28,19.25,104.47,13,110.86,6.9c3.1-2.95,6-2.52,9,.84,4.78,5.34,9.47,10.75,14.2,16.13.12.14.25.27.37.42,2.36,3,2.53,4.95.6,6.78S131,32.65,128.39,30c-1.91-2-3.61-4.16-5.47-6.2C122.11,22.87,121.15,22.11,119.26,20.37Z"/></svg>