<svg id="Layer_1" data-name="Layer 1" xmlns="http://www.w3.org/2000/svg" viewBox="0 0 200 200"><path d="M45.71,44.81c-1.76-.15-3.27-.33-4.79-.39s-3.12,0-4.69,0c-5.06-.06-7.58-1.74-7.64-5.07s2.68-5.34,8-5.37c5,0,10.07,0,15.11,0,1.7,0,3.41-.14,5.23-.22,2.47-11.55,10.95-18.23,19.4-24.5C79.82,6.6,85,5.93,89.47,4.84c8-1.93,16-.29,23.47,2.37,3.72,1.32,7.08,4.37,9.91,7.32a33.26,33.26,0,0,1,9.42,19.54c3.09.1,6.13.32,9.16.26,4.16-.09,8.32-.52,12.47-.57,3.93,0,6.35,2.11,6.38,5.31,0,3-2.07,5-5.75,5.56-1.88.26-3.78.33-5.88.51a14.83,14.83,0,0,0-.4,2.56c.18,14.58.55,29.17.55,43.76,0,15.45-.52,30.89-.52,46.33,0,10.41.52,20.82.76,31.23a40.56,40.56,0,0,1-.19,6.24,6,6,0,0,1-6.38,5.54c-3.08-.18-5.28-2.4-5.66-5.75a13.51,13.51,0,0,1,0-1.56c-.08-24.84-.31-49.67-.21-74.51.07-16.32.63-32.64.95-49,0-1.33-.14-2.67-.25-4.57-26.86-1.86-53.48.81-80.43-1.23-.2,2.23-.45,3.72-.44,5.21q.2,24.24.47,48.47c.21,20.15.35,40.3.74,60.44a100.61,100.61,0,0,0,1.69,15c.72,4.16,3.23,6.9,7.31,8.73,6.11,2.74,12.55,2.93,18.87,2.86,11.26-.12,22.49-1.23,33.75-1.66a36.8,36.8,0,0,1,9.68,1.1c2.39.56,3.56,2.64,3.53,5.2a5.11,5.11,0,0,1-3.71,5.1,15,15,0,0,1-4.53,1c-13.87.32-27.74.73-41.62.7a100,100,0,0,1-15.46-1.74c-10.53-1.7-16.49-8.53-18.86-18.42a79.59,79.59,0,0,1-2.05-17c-.26-15.11,0-30.23-.07-45.34Q46.09,81.8,46,49.76C46,48.24,45.81,46.71,45.71,44.81ZM67.65,33.14c3.38,2,6.41,1.51,9.49,1.33,4.3-.26,8.62-.18,12.92-.16,2.42,0,4.84.33,7.26.26,6.05-.17,12.09-.48,18.14-.76,1.48-.07,3-.24,5.05-.41-2.59-7.64-6.13-13.52-13.65-16.33-6.08-2.27-12.16-2-18.34-.81C78.63,18.14,73.05,25.15,67.65,33.14Z"/><path d="M118.39,104.48q.42,19.26.83,38.53a16.14,16.14,0,0,1-.08,2.6c-.43,3.35-2.65,5.56-5.69,5.75a5.89,5.89,0,0,1-6.3-5,67.3,67.3,0,0,1-.9-10.88c0-17.54.21-35.08.32-52.61,0-2.78-.18-5.56,0-8.33a23.2,23.2,0,0,1,1-6.11,4.88,4.88,0,0,1,6.06-3.56c2.49.55,4,2.39,4.06,5.31q.6,17.16,1.16,34.33Z"/><path d="M76,107V72.07c0-.34,0-.69,0-1,.16-3.41,2-5.54,4.81-5.73a5.19,5.19,0,0,1,5.46,4.55,60,60,0,0,1,1.07,9.81c.16,12.51,0,25,.23,37.54.12,7.81.61,15.61.9,23.41a19.25,19.25,0,0,1-.15,4.16,5.67,5.67,0,0,1-5.4,4.78,5.52,5.52,0,0,1-6-4.05,14.47,14.47,0,0,1-.49-4.11c0-11.46,0-22.93,0-34.39Z"/></svg>