<svg id="Layer_1" data-name="Layer 1" xmlns="http://www.w3.org/2000/svg" viewBox="0 0 200 200"><path d="M193,108c0,14.53,0,25.68,0,36.82a51.43,51.43,0,0,1-.34,6.45c-1.13,8.62-5.56,12.92-14.4,13.36a348.08,348.08,0,0,1-45.21-.71c-17.34-1.4-34.73-2.28-52.1-3.47-5.36-.37-10.69-1.38-16.05-1.51-15.44-.35-30.88-.37-46.32-.62a39.89,39.89,0,0,1-8-.92c-3.91-.88-5.95-3.25-5.89-7.24.16-11.48.6-23,.85-34.45.11-4.85.06-9.7,0-14.55-.07-3.22-.4-6.44-.55-9.66C4.64,85,4.52,78.56,4.07,72.12S7,61.07,13.43,60.92c14.36-.32,28.74-.6,43.1-.29,16,.35,31.92,1.35,47.88,2.1q21.23,1,42.45,2,1.08.06,2.16.06c12,0,24,0,36.07-.13,2.89,0,5,1,5.83,3.74a26.17,26.17,0,0,1,1.28,6.82C192.58,87.27,192.8,99.32,193,108ZM18,100.62v16.2c10.06,3.09,14.25,5,21.2,17.25,2.19,3.87,4.42,7.7,6.57,11.44,13.68.81,27.27,1.56,40.85,2.44,20,1.28,40.06,2.68,60.09,4,3,.19,6,0,9.23,0-.43-8.13,2-14.77,5.41-21.22,3.67-6.9,8.88-11.12,17-11.22.46,0,.92-.47,1.63-.87V102.9c-15.1-1.23-22.81-10.13-25-24.86-19.32-.8-38.26-1.56-57.19-2.36S60,72.75,41.24,72.56C37.35,89.9,31.81,98.09,18,100.62ZM180,131.09c-3.45-.46-5.63.37-6.82,3-1.53,3.4-3.13,6.8-4.34,10.32a8.41,8.41,0,0,0,.62,7.67L180,150.91ZM31.23,146.67c-4-10.84-7.74-15.41-13.77-16.87,0,5.7-.35,11.28.35,16.87ZM17.53,88.09A14.87,14.87,0,0,0,28.35,72.55H16.12C16.6,77.91,17.05,82.82,17.53,88.09Zm162.66-9.67c-4.57-.27-8.73-.6-12.88.35,1.24,7.82,5.09,11,12.88,10.81Z"/><path d="M92.46,86.13c10.65-.33,17.88,4.91,24.65,11a14.12,14.12,0,0,1,3.46,5.4c3.89,10.19,3.05,24.55-7.43,33.59a20.6,20.6,0,0,1-8.07,4c-20.91,5.4-36.49-10.35-35.09-29,.64-8.52,3.41-15.56,10.43-20.92C84.38,87.11,88.42,85.49,92.46,86.13Zm17.46,28.37c-.35-6.83-1.43-8.73-7.39-12.12-2.48-1.41-5.15-2.55-7.48-4.17-2.53-1.75-4.49-1.14-6.83.38-8.72,5.65-8.93,22.17.83,28.12,6.76,4.12,15.91,2.09,19.23-5C109.29,119.52,109.4,116.91,109.92,114.5Z"/></svg>