<svg id="Layer_1" data-name="Layer 1" xmlns="http://www.w3.org/2000/svg" viewBox="0 0 200 200"><path d="M32.85,44.26c-6.34,0-12,0-17.77,0-1.61,0-3.36.21-4.8-.32A4.81,4.81,0,0,1,7.65,41c-.45-1.79.86-3.07,2.64-3.43a19.7,19.7,0,0,1,3.77-.18c7.92,0,15.84,0,23.77,0h5.35c2.62-8,8.17-13.58,13-19.54C60.64,12.38,67.3,9.77,74,8.35A119.44,119.44,0,0,1,94.33,6c14.6-.52,26.12,6.16,35,17.14,3.32,4.1,5.12,9.45,7.95,14.88,1.1.06,2.84.21,4.58.24q13.5.2,27,.34c.72,0,1.45,0,2.16,0,3,.35,4.45,1.61,4.21,3.82C175,45,173.2,45.68,171,45.66c-3.24,0-6.48-.17-9.71-.21s-6.74,0-10.78,0c0,2.5,0,4.43,0,6.35.17,27.93.42,55.85.47,83.77,0,12.42-.36,24.84-.59,37.26-.08,4.32-1.23,6.06-3.76,6S143,177,143,172.68q.21-38.37.51-76.73.16-22.71.33-45.4c0-1.41-.12-2.83-.21-4.73-1.69-.19-3.22-.49-4.75-.51q-31.34-.35-62.65-.63-14.86-.15-29.71-.34c-1.94,0-3.87,0-6,0-.18,1.79-.39,3-.4,4.2,0,11.17,0,22.34-.12,33.51-.35,24.66-.81,49.32-1.24,74-.06,3.76-.23,7.52-.34,11.29-.19,6.68,3.76,10.82,9.17,13.44a38.06,38.06,0,0,0,11.81,3.46c15.78,1.91,31.62,1.39,47.45.38q13.45-.87,26.93-1.7c2-.13,4.19-.11,4.68,2.47.53,2.82-1.48,3.81-3.72,4.35a26.94,26.94,0,0,1-4.78.79c-21.92,1.28-43.84,2.88-65.79,1.08a80.75,80.75,0,0,1-15.8-3.17c-10.14-3-18.3-13.49-18-25.46.65-23.93.88-47.88,1.38-71.82.28-13.5.76-27,1.13-40.49C32.89,48.86,32.85,47.07,32.85,44.26Zm95.58-6.68a15.3,15.3,0,0,0-.63-2.38c-5.67-13.64-16.28-20.78-30.63-21.84-6.72-.5-13.64.4-20.33,1.51-6.2,1-12.21,3.27-16.5,8.34-2.66,3.15-5.11,6.49-7.55,9.82a34.32,34.32,0,0,0-2.24,4.55Z"/><path d="M72.64,89.54c-.42,20.87-.81,41.74-1.29,62.6-.06,2.51-.58,5-.82,7.5-.2,2.11-1.25,3.51-3.38,3.39s-3.11-1.61-3.1-3.71c.06-7.2,0-14.4.23-21.6.18-7,.64-14,.81-21,.44-17.63.78-35.27,1.17-52.9,0-1.44-.26-3.07.33-4.25s2.1-2.3,3.16-2.25,2.28,1.48,2.82,2.6.25,2.47.25,3.73q0,12.95,0,25.9Z"/><path d="M107.47,148.18q.48-41.76,1-83.53A17.88,17.88,0,0,1,109,60.4c.52-2,1.88-3.09,4-2.6,1.88.42,2.49,1.85,2.47,3.65-.09,7.18-.14,14.36-.22,21.54q-.24,21.29-.5,42.57c-.12,10.24-.22,20.48-.38,30.72-.07,4.2-1.4,6.16-3.79,5.93-2.18-.21-3.12-1.89-3.21-5.94-.05-2.7,0-5.39,0-8.09Z"/></svg>