<svg id="Layer_1" data-name="Layer 1" xmlns="http://www.w3.org/2000/svg" viewBox="0 0 200 200"><path d="M152.57,20.29c2.62-.35,4.67-.64,6.74-.9,5.58-.68,7.82,1.38,7.05,7-1,7.65-2,15.36-3.69,22.86a78.48,78.48,0,0,0,1.2,39.94A88.49,88.49,0,0,1,167,108.6c.6,11-3.87,19.78-10.58,27.82-5.73,6.86-13.13,11.5-21.27,14.72a178.13,178.13,0,0,0-29.64,15.52c-6.18,3.91-11.52,9.2-17,14.09-8.61,7.65-18.3,12.79-30,13.22-2.35.08-4.74-.88-7.09-1.43-2-.48-4-1.17-6-1.56-1.28-.24-2.64,0-3.94-.12a17.7,17.7,0,0,1-11.64-5.62c-8-8.71-9.36-18.63-5.64-29.33,3.36-9.68,7.94-18.7,16.11-25.48,4.66-3.87,8.93-8.2,13.44-12.26,5.66-5.09,12.43-8.52,18.77-12.61,12.64-8.14,21.22-19.16,23.47-34.7a301.68,301.68,0,0,0,3.36-54.53c-.13-3.76.52-4.53,4.33-5,.32-.05.65-.08,1-.1,10.15-.5,20.31-1,30.46-1.51,2.29-.13,4.56-.56,6.85-.73a20.4,20.4,0,0,1,5.35,0c3.74.72,5.18,2.67,5.34,6.55C152.61,16.79,152.57,18.1,152.57,20.29ZM64.75,173.87c9.61-7.64,18.74-15,28-22.24,9.41-7.34,21-10.6,31.35-16-.86-3.72-1.85-7-2.32-10.4a49.48,49.48,0,0,1-.55-10.31c.88-12.81,5.12-23.75,17.62-29.74a31.89,31.89,0,0,0,2.78-1.69V48.78a94.55,94.55,0,0,1-36.92,1.85c-1.12,8.23-2.23,15.85-3.18,23.49A40.37,40.37,0,0,1,95,91.49c-6.31,9.66-14.11,17.68-24.73,22.74-3.07,1.46-5.73,3.79-8.62,5.65-7.81,5-13.71,12.22-20.6,18.3a18.82,18.82,0,0,0-5.22,8.69C50.06,150.88,60.05,159.21,64.75,173.87Zm-3.6,11.61.68,1c8.45-.93,15.21-5.28,21.54-10.7,6.09-5.22,11.93-10.92,18.66-15.19a178.76,178.76,0,0,1,31.05-15.95c6.91-2.67,13.31-6.53,18.2-12.31,6-7.08,10.43-14.88,9.15-24.63-.77-5.84-1.76-11.68-3-17.43-1.79-8.19-4-16.36-3.07-24.82,1-9,2.56-17.86,3.87-26.79.6-4.14,1.2-8.28,1.86-12.87l-8.07.73c-1.05,8.71-2.42,17-3,25.29-.73,11-1,22,.37,33a190.22,190.22,0,0,1,1.94,21.54c.16,11.6-3.76,21.75-13.49,28.69A90.22,90.22,0,0,1,119,145.56c-12.09,4.82-23.39,11-33.25,19.77-6.12,5.44-12.86,10.16-19.26,15.28C64.6,182.11,62.92,183.85,61.15,185.48ZM32.05,153a29.23,29.23,0,0,0-3.56,15.62c.3,5.9,3.61,10.59,8,14.16s17.35,1.45,21.05-3.06a3.29,3.29,0,0,0,.81-2.56c-1.41-4-2.17-8.67-4.8-11.68C48.1,159.25,41.88,153.41,32.05,153ZM142.51,90.3c-5.82,3-9.93,6.62-12.26,12.62-3.38,8.7-3.33,17.3-1.16,26.11a12.3,12.3,0,0,0,1.41,2.59c6.26-3.58,10.69-8.28,12.49-15C145.3,108.11,145.06,99.47,142.51,90.3ZM105.56,27.63c13.29,2,26.15-.3,39.41-1.87.16-3.57.3-6.73.43-9.78l-39.84,2.78Zm38.28,5.17c-13.09.65-25.51,3.07-38.27,1.22V44.26c12.09,1.77,23.73,1.36,35.19-2.42a4,4,0,0,0,3.07-4C143.89,36.43,143.84,35,143.84,32.8Z"/></svg>