<svg id="Layer_1" data-name="Layer 1" xmlns="http://www.w3.org/2000/svg" viewBox="0 0 200 200"><path d="M191.77,40.52c-.8-3.49-3-4.51-6.17-3-1.65.8-3.28,1.62-5.45,2.7.34-1.83.55-3,.76-4.18a20.38,20.38,0,0,0,.41-2.29c.25-4.2-2.78-6.43-6.73-4.95-1.14.42-2.22,1-3.36,1.45a67.69,67.69,0,0,1-18.78,4c-6.43.52-12.82,1.34-19.28,1.13-2.11-.07-4.22-.3-6.33-.33-3.26,0-4.57,1-4.72,4.26a97,97,0,0,1-3.59,20.29,39.12,39.12,0,0,1-12.89,20.13c-10.71,9.18-23.25,15-36.13,20.35-10.87,4.54-21.37,9.89-30.73,17.19-7.2,5.62-14.6,11.06-20.48,18.06-6.6,7.86-10.62,16.93-9.91,27.52a20,20,0,0,0,3.19,9.7c2.67,4.13,5.32,8.24,9.69,10.83a23.32,23.32,0,0,0,3.81,2c2.57.92,5.15,1.65,6.91,4l.12.1a6.43,6.43,0,0,0,1.77,1,.17.17,0,0,1,.11.09s0,0,0,0c.21.12.4.25.6.38l.35.15c1.86.85,3.75,1.63,5.64,2.45a10.73,10.73,0,0,0,1.79.37l.64,0c.59,0,1.18,0,1.77,0,.93,0,1.85-.07,2.78-.17h0l.81-.15h0a49.27,49.27,0,0,0,6.65-1.35c6.4-2.18,12.75-4.52,19.07-6.93a20.11,20.11,0,0,0,4-2.41,145.19,145.19,0,0,1,22.78-12.33c.91-.41,1.8-.88,2.72-1.28,3.65-1.59,7.43-2.94,11-4.78,7.06-3.7,14.82-5.49,22.35-7.51s14-6.11,20.94-9.22a11,11,0,0,0,2.28-1.37c4.48-3.46,9.26-6.61,13.32-10.51a54.26,54.26,0,0,0,15.67-28.84,15.87,15.87,0,0,0,.24-3.65c-.24-8.66-.68-17.32-.72-26a119.93,119.93,0,0,1,1-12.94c.72-7.17,1.57-14.33,2.31-21.5A8.17,8.17,0,0,0,191.77,40.52ZM38.26,181.18c-7.35-.24-14-2.41-18.72-9-4.91-6.75-5.42-13.72-2.42-21,1.58-3.86,4-7.38,6.11-11a3.12,3.12,0,0,1,4-1.36A20.28,20.28,0,0,1,31,140.17c4,2.32,8.19,4.65,11.14,8.32,4.66,5.8,9,11.85,9.82,19.62.31,2.84.9,5.66,1.34,8.38C48.52,179.58,43.49,181.36,38.26,181.18ZM54.06,185l-.23-.55c3.71-2,7.4-4.1,11.15-6.07,1.08-.57,2.37-1,2.66,1.29ZM68,169.24c-2.35,1.22-4.83,2.19-7.2,3.24-1.59-5.67-2.55-11.42-4.84-16.59A43.28,43.28,0,0,0,46.36,142a62.79,62.79,0,0,0-14.65-9.9c2.29-2,4.27-3.85,6.44-5.5A148.44,148.44,0,0,1,60.78,112c8-4.09,16.47-7.21,24.57-11.11a123.37,123.37,0,0,0,23.43-14.59,53.58,53.58,0,0,0,8.4-8.5,42.43,42.43,0,0,0,8.19-17c1.3-5.39,3-10.68,3.32-16.29a4.92,4.92,0,0,1,.49-1.3c14.6-.07,29.1-.66,43.54-5.16-1.37,13.53-3.75,26.84-3,40.67-1.09.26-1.94.53-2.81.67a18.33,18.33,0,0,0-9.8,4.6c-2,1.86-4.41,3.37-6.41,5.28-8.93,8.54-13.39,19.16-14.23,31.38a37.29,37.29,0,0,0,2.18,15.63c-1.19.5-2.26,1-3.37,1.4-2.31.82-4.59,1.71-6.95,2.32-8.89,2.29-17.17,6.06-25.34,10.12-8.34,4.15-17.18,7.32-25,12.52-1.57,1-3.08,2.18-4.65,3.22A57.84,57.84,0,0,1,68,169.24Zm100.47-65.92c-1.18,9.89-6.73,17.1-14.06,23.21-2.7,2.26-5.69,4.18-8.82,6.45-7.06-19.62,8.69-43.55,23.62-46.19C169.7,92.35,169.08,97.82,168.43,103.32Zm-16.55,39.53c-2.17,1.12-4.29,2.35-6.53,3.31-2.63,1.13-5.33,2.11-8,3-4.54,1.46-9.09,2.92-13.7,4.15-3.44.92-6.63,2.47-9.94,3.67-7.64,2.77-14.91,6.32-22.22,9.8-5.69,2.7-11.11,6-16.85,9.09l-.94-1.35a88.32,88.32,0,0,1,19-11.82c6.91-3.29,13.86-6.53,20.88-9.6,4.36-1.9,8.82-3.62,13.35-5.11,8.54-2.81,17.16-5.38,24.77-10.76l3.09,4C153.73,141.82,152.82,142.36,151.88,142.85Zm8.69-6-3-4c6.7-4,10.34-10.37,14.15-16.44,3.94-6.29,3.67-13.81,5-21H182C185.16,108.52,175.48,128.62,160.57,136.83Zm21.61-48.89h-5a211,211,0,0,1,2-40.41l5.28-1.39C183.57,60.18,180.29,73.87,182.18,87.94Z"/><path d="M150.73,75.8a5.69,5.69,0,0,1-1.44-.5c-4.24-3.43-9.27-6.47-12.19-10.57a6.8,6.8,0,0,1-1.29-3.32c-.11-1.4.78-2.62,2.93-3.22a7.41,7.41,0,0,1,6,.47c1.26.75,2.36,1.62,3.69,2.56,1.08-1.12,2-2.18,3.08-3.19a6.13,6.13,0,0,1,6-1.87c2.77.54,4.62,2,4.48,4a8.63,8.63,0,0,1-1.41,4.69c-2.6,3.52-5.66,6.89-8.57,10.3A4.83,4.83,0,0,1,150.73,75.8Z"/></svg>