<svg id="Layer_1" data-name="Layer 1" xmlns="http://www.w3.org/2000/svg" viewBox="0 0 200 200"><path d="M107.13,172.23c0-9.54,0-19.08,0-28.62,0-1.33-.46-2.68-.28-4a6.12,6.12,0,0,1,5-5.53c3.18-.69,6.07.24,7.29,3.23a25.72,25.72,0,0,1,1.87,9c.3,13.35.27,26.71.43,40.07,0,3.58-.69,6.63-4.29,8.29-3.33,1.55-5.83,0-8.57-1.82-6.85-4.53-13.91-8.75-20.84-13.17-4.12-2.62-8.23-5.29-12.2-8.12C73,169.79,71,167.39,71,163.9c-.06-12.43-.2-24.87-.21-37.3,0-10.25,0-20.49.29-30.73a16.92,16.92,0,0,0-3.73-11.75c-.56-.69-1-1.46-1.66-2.09-14.88-15.06-25-34-39.95-49C22.47,29.73,20,25.6,17.6,21.6c-3.29-5.49-1.87-9,3.83-11.66C26.59,7.47,32,6.69,37.61,6.58q39-.74,78.09-1.53c14.89-.3,29.79-.66,44.69-1a31.62,31.62,0,0,1,4.67,0c6.49.83,9.62,6.5,6.55,12.2a164.05,164.05,0,0,1-19.19,28.85,32.28,32.28,0,0,0-5.29,7.61c-6,13.79-16.15,25-23.56,37.95-2.69,4.71-7.46,5.56-11.45,3S107.2,86.67,110,82c3.82-6.26,8.06-12.26,12.1-18.39,2.58-3.89,5.48-7.62,7.59-11.75a109.64,109.64,0,0,1,17.06-24.57c1.46-1.59,2.53-3.54,4.57-6.46-20.05-1.37-39,.26-57.92,0s-38.05.25-58.79.44c5.14,5.46,9.21,9.66,13.14,14,2.39,2.62,5,5.19,6.78,8.18a82.57,82.57,0,0,0,15.63,19c1.82,1.62,3.34,3.57,5,5.36C81.91,75.12,85.3,83,85,93.59c-.66,21.32.69,42.71,1.07,64.07.06,3,.79,5.17,3.43,6.64q8.07,4.48,16.11,9Z"/><path d="M115.18,124.83a10.18,10.18,0,1,1,10.09-10.18A10,10,0,0,1,115.18,124.83Z"/></svg>