<svg id="Layer_1" data-name="Layer 1" xmlns="http://www.w3.org/2000/svg" viewBox="0 0 200 200"><path d="M147.15,14.72c1.54-.08,2.63-.19,3.72-.2,3.39,0,5.34,1.38,5.77,4.8.53,4.33.78,8.71.89,13.07.24,8.74.07,17.5.5,26.23.38,7.75,1.34,15.47,2.21,23.19s1.94,15.51,3,23.26c.83,6.21,1.25,12.47.06,18.63-1.54,8-4.48,15.47-11,20.85-2.48,2-5.74,3.15-8.44,5-5.58,3.78-11.89,6.12-17.8,9.24a56.06,56.06,0,0,0-16,12c-2.33,2.6-5.14,4.77-7.71,7.17-3.1,2.92-6.23,5.82-9.25,8.83s-6.38,4.74-10,6.54a68.61,68.61,0,0,1-14.77,5.14,14.85,14.85,0,0,1-13.07-2.83c-1.16-.88-1.81-2.43-2.88-3.94a19.22,19.22,0,0,1-11.75-7.35c-1-1.26-2-2.42-3.1-3.58-2.62-2.86-3.59-6.15-3.84-10-.81-12.37,5.26-21.68,13.33-30,4.52-4.64,9.69-8.67,14.59-13a22.07,22.07,0,0,1,3.48-2.34c8.1-4.25,14.45-10.81,21.48-16.43a26.17,26.17,0,0,0,9.78-17.78,139.41,139.41,0,0,0,1.13-14.12c.25-18.45.3-36.91.48-55.36a58.27,58.27,0,0,1,.65-8.65c.76-4.68,2.41-6.12,7.24-6.76,2.42-.32,4.86-.48,7.3-.62,4.87-.29,9.74-.5,14.61-.79,1.58-.09,3.16-.34,4.74-.46a57.73,57.73,0,0,1,6.56-.39c4.89.18,7.59,2.92,7.91,7.75C147,12.76,147.08,13.6,147.15,14.72ZM106.27,42.16a4,4,0,0,0-.32.93c-.25,10.67-.4,21.34-.72,32-.17,5.36-1,14.1-1.69,19.42a19.48,19.48,0,0,1-1.56,6C99.09,106.5,95.5,112,90.25,116.19c-4.46,3.58-8.9,7.2-13.39,10.74a29.21,29.21,0,0,1-5.1,3.53c-4.83,2.33-8.44,6.17-12.48,9.46-2.53,2.06-4.81,4.41-7.2,6.63,13.48,5.43,18.11,16.89,21.24,29.69,5.65-5,11.66-8.88,16.85-13.91,5.65-5.46,12.18-10,18.42-14.89a36.58,36.58,0,0,1,3-2.08l11.59-6.92a7.37,7.37,0,0,0-.26-1.51c-2.56-5.82-3-12-2.7-18.2.37-8.62,3.67-15.8,11.32-20.43,3.08-1.87,6.43-3.29,9.88-5,0-.45,0-1.17-.14-1.87-1.25-8.4-2.38-16.8-2.11-25.34.14-4.49,0-9-.14-13.47-.16-3.71-.59-7.4-.87-10.72Zm42.88-20.31c-1.05,1.11-1.93,1.63-2.12,2.34a14.58,14.58,0,0,0-.33,4c.2,9.22.49,18.44.67,27.67.1,5.17.08,10.35.14,15.53,0,2.15.27,5.67.54,7.8.84,6.48,1.9,12.93,2.55,19.42.54,5.43.71,10.89.93,16.34s-.43,11-3.62,15.71c-4.19,6.24-8.95,11.59-16.78,13.78s-14.65,6.52-20.76,11.93c-2.54,2.25-5.4,4.13-8.09,6.21-2.51,1.93-5.3,3.62-7.41,5.93-3.59,3.91-8,6.75-12.08,10-4.65,3.67-9.17,7.51-13.93,11.43.77,0,1.34.08,1.77-.22a19.21,19.21,0,0,1,6.66-2.93A21.63,21.63,0,0,0,88,180.62a98.6,98.6,0,0,1,9.3-8.77c3.41-2.64,6.07-6,9.19-8.83,2.59-2.38,5.15-5,8.16-6.68,8.21-4.74,16.65-9.09,25-13.56,2-1.09,4.22-1.95,6.18-3.16a13.25,13.25,0,0,0,3.82-3.31,32.74,32.74,0,0,0,6.35-19c.18-12-2.56-23.6-3.74-35.41-.69-6.88-1.77-13.73-2.07-20.61-.39-9.1-.13-18.22-.29-27.33C149.89,30.21,149.47,26.47,149.15,21.85ZM57.08,184.13c1.9,0,3,0,4.1,0,3.1-.17,3.6-.67,3.65-3.68.18-9.3-3.49-17-10.12-23.34a8.81,8.81,0,0,0-7-2.6,3.61,3.61,0,0,0-2.37,1.2c-3.64,5-4.65,10.61-3.88,16.58A8.14,8.14,0,0,0,43,175.47c.82,1.2,1.89,2.22,2.79,3.37C48.89,182.77,52.64,185.1,57.08,184.13Zm74-48.63c3.48-.29,4.78-2.9,6.6-4.75,3.41-3.47,5.84-7.52,5.74-12.53-.11-5.41-.54-10.81-.86-16.7-6.8,2.37-11.81,6-13.56,12.61C127.09,121.34,128,128.48,131.08,135.5Zm7.47-122.91-31.41,2.33-.38,6.1C117.69,23,128,20.1,138.61,19.4Zm-.38,14.93c-3.85.28-7.35.53-10.84.81-3.64.28-7.26.69-10.9.85-3.47.17-6.94.09-10.48.13l0,5.09c8,.06,15.73.36,23.5.06,2.87-.11,6.19.27,8.71-2.2Z"/></svg>