<svg id="Layer_1" data-name="Layer 1" xmlns="http://www.w3.org/2000/svg" viewBox="0 0 200 200"><path d="M142.35,21c2.48-.54,4.24-1.06,6-1.29,3.34-.43,5.24,1,5.76,4.29a11.94,11.94,0,0,1,0,3.27c-1.69,13.54-.08,27,1.54,40.35.72,6,2.67,11.73,3.56,17.66s1.34,12,1.67,18c.8,14.46-6,25.58-16,35.12-6.42,6.16-14.32,10.07-22.46,13.31a256.92,256.92,0,0,0-57.19,31.74c-5.75,4.22-12,7.74-19.1,9.09-5.73,1.1-11.29.87-15.33-4.43a5,5,0,0,0-2.75-1.46C15.38,183.67,8,174.3,8.16,161.18c.13-9.46,3.62-17.78,8.87-25.44,8-11.6,19.33-19.09,31.24-26,9.29-5.39,18.45-11,27.56-16.7a74.58,74.58,0,0,0,8.22-6.33c4.36-3.64,7.17-8.06,7.35-14,.36-11.47,1-22.93,1.43-34.4.2-5.65.1-11.31.14-17A27.58,27.58,0,0,1,93.05,18c.61-4.71,2.89-6.44,7.67-6.38,6.54.08,13.11.18,19.64-.21,4.34-.25,8.62-1.37,12.94-2A27,27,0,0,1,138.19,9c3.67.13,5.23,2,4.91,5.66-.09,1.08-.44,2.14-.59,3.22C142.4,18.7,142.42,19.58,142.35,21ZM117.94,129.64c-1.16-5.94-2.67-10.9-3-15.94-.79-11.82,2.09-22.47,11.95-30.13a66.47,66.47,0,0,1,6.93-4.15q-1.56-18.6-3.09-36.82c-4.84.52-9.83,1.27-14.85,1.52-5.2.27-10.44.06-16.15.06-.12,3.88-.13,7.3-.37,10.71-.51,7.26-1.07,14.52-1.75,21.77a19.52,19.52,0,0,1-5.79,12c-6.13,6.37-13.25,11.4-20.73,15.94-9,5.48-18.25,10.63-27.3,16.07A58.71,58.71,0,0,0,27.84,134.1c14.87,6.64,19,20.16,23.3,34.27C71.51,151.44,94.72,140.49,117.94,129.64ZM40.13,183.88c.18.55.35,1.09.52,1.63,1.75-.25,3.69-.1,5.23-.82,5.25-2.46,10.63-4.79,15.47-7.93,12.21-7.94,23.93-16.68,37.33-22.65q10.23-4.56,20.51-9c7.37-3.21,14.75-6.47,20.7-12,8.57-8,14.6-17.37,13.74-29.68-.56-8-1-16.08-2.78-23.83a171.57,171.57,0,0,1-4-33c-.22-6.16,0-12.34,0-19.13l-5.92,1.32a96.5,96.5,0,0,0-1.33,33c1.46,11,3.62,22,4.43,33.05,1.36,18.71-3.78,32.35-22.2,41-11.86,5.59-23.93,10.93-35.15,17.66C70.76,163,55.6,173.69,40.13,183.88Zm5.06-11c-2.86-7.39-5.26-14-8-20.52a21.45,21.45,0,0,0-9-9.93c-4-2.42-6.3-1.74-8.21,2.48a63.18,63.18,0,0,0-3.74,10.19A22.16,22.16,0,0,0,19,173.43c3.64,5.57,9.5,7.8,15.56,5.29C38.06,177.29,41.22,175.13,45.19,172.92ZM135.12,87.4c-10.57,1.23-17.83,23.8-9.49,37.24C136.25,120.2,139.59,99.09,135.12,87.4ZM100,36.51c9.43,1.94,21.46,1.13,29.44-1.57,2.8-.94,3.86-2.26,2.57-5.75-10.39,4.64-21.14,1.85-32,1.86Zm0-15.93c-.85,2.72.68,3.63,3,3.75,4.36.22,8.75.77,13.07.42a136.64,136.64,0,0,0,15-2.49c2.39-.46,3.83-1.86,3.44-4.58Z"/></svg>