<svg id="Layer_1" data-name="Layer 1" xmlns="http://www.w3.org/2000/svg" viewBox="0 0 200 200"><path d="M158.54,18.86c2.22-.48,3.89-.82,5.54-1.19,4.09-.92,6.32.58,6.76,4.73a34.73,34.73,0,0,1,0,4.89c-.46,14.51-1.25,29-1.27,43.52,0,9.42.94,18.86,1.8,28.25.75,8.22.84,16.34-1.74,24.25-.83,2.56-1.73,5.35-3.42,7.33-7,8.17-14.54,15.51-24.75,20a257.38,257.38,0,0,0-31,15.85C103.07,171,96.76,177.19,90,182.67c-6.37,5.15-12.74,10.23-21,12.22-5.7,1.37-11.42,2.17-17.23,1.07-1.94-.37-4.24-.71-5.56-1.94-2.48-2.29-5.28-2.84-8.37-3.18-6.79-.75-11.8-4.61-15.67-9.88s-3.45-11.45-1.59-17.27c3.71-11.52,9.2-22,18.57-30.19a159.81,159.81,0,0,1,31.6-22c7.69-4,15.18-8.59,21.24-15a24.87,24.87,0,0,0,7-14.45c2.41-24,4.49-48.07,6.64-72.11.34-3.76,1-4.61,5-4.85,5.07-.29,10.15-.35,15.22-.71,7.23-.51,14.45-1.18,21.67-1.81,2-.18,4-.63,5.95-.61,4.3,0,6.28,2.21,6.09,6.54-.07,1.62-.42,3.24-.6,4.86S158.75,16.43,158.54,18.86ZM149,26.11,111.22,28c-.3,4.12-.55,8.79-1,13.43-1.21,11.91-2.84,23.79-3.68,35.73-.72,10.27-4.12,19.11-11.73,26a89.2,89.2,0,0,1-11.69,8.84C73.68,118.16,64,123.92,54.57,130c-5.52,3.51-9.84,8.36-14.59,13,13.88,6.28,23.24,15.65,26.57,31.39C83,158.15,102.82,149.08,122,138.66c-5-9.24-5.21-18.47-3.7-28s7.32-15.87,13.76-22.19c4.27-4.19,9.5-4.86,14.92-5.48.16,0,.3-.19.94-.61C146.66,63.72,146.39,44.78,149,26.11Zm8.17-.11c-.41,3.17-.9,5.66-1,8.17-.51,9.41-1.28,18.83-1.25,28.24,0,15.42.92,30.84.85,46.25,0,7.51-2,15.07-7.4,20.58-6.46,6.58-13.72,12.35-22.31,16.23-6.26,2.84-12.38,6-18.46,9.23-3.83,2-7.55,4.32-11.2,6.67-5.48,3.53-10.94,7.11-16.24,10.88-3.68,2.62-7.06,5.64-10.62,8.43-2.86,2.24-5.78,4.4-8.67,6.59a17.14,17.14,0,0,0,7.4-.53C75,185,80,180.36,85.22,176.2c7.1-5.63,13.85-11.8,21.41-16.73,6.79-4.44,14.46-7.53,21.75-11.2,9.68-4.87,19.56-9.13,27.49-17.17a27.8,27.8,0,0,0,8.44-20.4,138.84,138.84,0,0,0-.81-14.1,360.72,360.72,0,0,1-.14-65.23c.15-1.74,0-3.51,0-5.37ZM43.62,184a19.89,19.89,0,0,0,12.8-3c2-1.18,2.48-2.65,2.2-5-1.33-10.78-7.76-18-16.24-23.85a10.64,10.64,0,0,0-5.09-1.67c-1.22-.09-3.12.52-3.69,1.45-3.8,6.19-7.34,12.62-6.85,20.19a11.75,11.75,0,0,0,2.66,6.21C33.13,183,38.29,184.41,43.62,184ZM148.21,90.85A10.49,10.49,0,0,0,139,92.71c-10.55,8.2-15.3,19-13.39,32.35a27.11,27.11,0,0,0,3.43,10.28c3.89-2.89,7.35-5.48,10.84-8a18.93,18.93,0,0,0,6.66-9.66C149.51,108.84,148.22,99.84,148.21,90.85ZM112.26,20a95.39,95.39,0,0,0,38-3.27c.34-2.13.6-3.85.93-6l-38.55,2.5c-.23,1.44-.49,2.49-.56,3.55A27.38,27.38,0,0,0,112.26,20Z"/><path d="M128,40.53a32,32,0,0,1,2.84-3.18,4.58,4.58,0,0,1,5.5-.89c2.23,1.16,3.52,3.29,2.66,5.37a106.81,106.81,0,0,1-7.49,14.93c-1.53,2.49-4.77,2.14-6.92-.72a58.19,58.19,0,0,1-6.23-10.72c-1.33-2.93-.24-6.22,1.76-7.31,2.56-1.4,4.48-.06,6.28,1.65A7.22,7.22,0,0,0,128,40.53Z"/></svg>