<svg id="Layer_1" data-name="Layer 1" xmlns="http://www.w3.org/2000/svg" viewBox="0 0 200 200"><path d="M94.57,25.58c-1.45,2.21-2.89,4.44-4.35,6.65C87.16,36.84,84.16,41.49,81,46a12.44,12.44,0,0,1-3.19,3,5.78,5.78,0,0,1-7.19-.33,5.63,5.63,0,0,1-1.24-7.54q8-11.64,16.35-23a68.85,68.85,0,0,1,6.74-7.36c4.64-4.64,8.49-5.15,13.62-1.06A77.81,77.81,0,0,1,116.67,20.2c5.25,6.2,10.17,12.69,15.11,19.14,1.08,1.42,2.45,3.3,2.28,4.81a9.4,9.4,0,0,1-2.95,5.52c-1.93,1.69-4.62,1.44-6.71-.15a21.91,21.91,0,0,1-3.75-4.05c-3.87-5-7.65-10-11.5-15-.29-.38-.84-.56-1.79-1.17-.16,2-.4,3.52-.4,5.09,0,12.4-.16,24.81.14,37.21.25,10.34,1.11,20.66,1.6,31,.18,3.88.2,7.77.1,11.66-.12,4.84-2.13,7.29-5.72,7.37s-5.81-2.43-6-7.11c-.28-5.73-.56-11.46-.62-17.19-.25-22-.4-44-.6-66.05,0-1.78-.15-3.55-.22-5.32Z"/><path d="M92.91,193.1c-11.43-.79-22.11-3-31.15-9.66-4.09-3-7.31-7.21-10.86-10.93-.75-.79-1.13-1.93-1.86-2.75C35.17,154.29,34.52,135.91,38,117c2.57-14,9.72-25.85,20.21-35.57,5.2-4.82,11.8-6.78,18.41-8.55a5.43,5.43,0,0,1,6.5,3.87c.8,2.75-.55,5.42-3.46,6.72a11.78,11.78,0,0,1-2.11.67c-11,2.6-17.46,10.35-22.6,19.74-7,12.73-8.61,26.2-6,40.29a31,31,0,0,0,6.21,14.07c2.08,2.58,4.07,5.26,6,8,6,8.58,14.94,11.62,24.7,13,6.83,1,13.61.09,20.41-.62a31.34,31.34,0,0,1,8.8.5,5.77,5.77,0,0,1,4.85,5.9,6,6,0,0,1-5.34,6.12C107.23,192,99.86,192.48,92.91,193.1Z"/><path d="M163.14,127c.14,14-2.31,23.72-8,32.53a18.68,18.68,0,0,1-3.92,4.6,4.94,4.94,0,0,1-6.63-.29,5.09,5.09,0,0,1-1.51-6.48,24,24,0,0,1,1.44-2.36c6-9.73,7.56-20.28,6.09-31.48-.62-4.75-.6-9.6-1.39-14.32C147,96,140.2,86.39,126.78,82.36c-4-1.2-5.52-3.67-4.71-6.9s3.28-4.62,7.41-3.95a30.53,30.53,0,0,1,15.9,7.42c8.13,7.39,14.12,16.23,15.63,27.39C162.11,114.36,162.68,122.47,163.14,127Z"/><path d="M130.63,178.16a5.61,5.61,0,0,1-6.07-5.64,5.67,5.67,0,0,1,5.28-5.9,6,6,0,0,1,6.45,5.39A5.85,5.85,0,0,1,130.63,178.16Z"/></svg>