<svg id="Layer_1" data-name="Layer 1" xmlns="http://www.w3.org/2000/svg" viewBox="0 0 200 200"><path d="M90.36,147.08c4.8-7,9.12-13.39,13.49-19.72a19,19,0,0,1,2.64-3.21,7.12,7.12,0,0,1,11.33,8.33,48.36,48.36,0,0,1-2.65,4.23,28.14,28.14,0,0,0,3.45,1.4c7.86,2,15.76,3.82,23.6,5.9,9.16,2.42,17.16,7.15,24.32,13.23s7.1,13,.19,19.29a54.36,54.36,0,0,1-28,13.51,309.93,309.93,0,0,1-43.07,3.84c-19.15.51-37.35-3.5-55.33-9.13-7.52-2.35-14.73-5.68-22-8.72a18.51,18.51,0,0,1-5-3.18c-4.2-3.66-5.1-8.44-2.43-13.39,4.07-7.53,10.71-12.27,18.5-15,10.45-3.64,21.14-6.64,32.31-7.36,1.37-.08,2.73-.37,4.69-.64a42.28,42.28,0,0,0-1.68-4.39,43.94,43.94,0,0,0-3.31-5.63C52.45,114,46.12,100,40.8,85.77,32.8,64.38,36,44.05,50.35,26a26.83,26.83,0,0,1,9.42-7C65.64,16.23,71.7,13.4,78,12c9-2,18.13-3.16,27.52-.4,8.19,2.4,15.41,5.64,21.36,12,7.92,8.44,11,18.64,11.82,29.73.62,8.32.34,16.64-2.2,24.7a25.59,25.59,0,0,1-3,6.4,5.92,5.92,0,0,1-7.24,2.48,5.45,5.45,0,0,1-3.83-6c.45-3.93,1.33-7.8,1.93-11.7,1.37-8.91,1.48-17.85-1.52-26.42s-8.52-14.29-17.49-17.09c-10.72-3.34-21-2.45-31.39,1a9.79,9.79,0,0,1-1.66.61c-12.87,2-17.93,11.58-20.9,22.44-3.56,13-1.95,25.43,4,38,9.45,20,22.66,37.63,32.91,57.06A16.78,16.78,0,0,0,90.36,147.08Zm68.29,19.63c-1.45-1.28-2.39-2.25-3.47-3-12.78-9.24-28-11.34-42.85-14.42a7.88,7.88,0,0,0-9.28,4.64,26.68,26.68,0,0,1-4.77,6.74c-4.32,4.53-9.46,4.81-14.22.7-2.68-2.3-5.76-4.74-7.15-7.8-2.42-5.29-6.37-5.44-10.77-4.58-9.68,1.9-19.3,4-28.93,6.21-5.37,1.21-9.66,4.26-13.91,9,4.57,2.07,8.66,4.43,13.05,5.81q14.37,4.54,29,8.2a74.17,74.17,0,0,0,15.77,2.45c18.57.53,37.13.34,55.48-3.19C144.66,175.89,152.24,173.34,158.65,166.71Z"/><path d="M68.17,61.35c0-9.54,2.72-15.9,7.08-21.46,4.68-6,11.55-6.47,18.37-5.87,6.55.57,11.14,4.19,14.43,10,4.29,7.64,6.22,15.33,3.16,23.83-4.9,13.63-20.34,20.89-32.57,12.71C71.14,75.6,68.81,67.62,68.17,61.35Zm12-3.18c.22,2.11.23,3.31.47,4.46C81.68,67.7,85,71.13,89,71.39c4.28.28,8.39-2.86,10.24-7.61S99.11,55,96.71,51c-2.09-3.47-5.47-4.44-9-4.59-3.74-.16-4.65,3.25-5.82,5.85A37.12,37.12,0,0,0,80.13,58.17Z"/><path d="M127.73,104.16a6,6,0,0,1-6.43,5.54,5.85,5.85,0,0,1-5.53-5.81,6.14,6.14,0,0,1,6.1-6A6.26,6.26,0,0,1,127.73,104.16Z"/></svg>