<svg id="Layer_1" data-name="Layer 1" xmlns="http://www.w3.org/2000/svg" viewBox="0 0 200 200"><path d="M171.19,122.18C170,97.44,158,78.84,136.37,66.68a20,20,0,0,0-6.18-2c-1.88-.35-3.26.85-3.8,2.63a3.44,3.44,0,0,0,1.86,4.25c2.2,1.22,4.51,2.25,6.66,3.56,21,12.76,31.79,36.74,27.06,60-5,24.68-23.89,42.69-48.59,46.34-29.41,4.34-58.2-16-64.06-45.32A57.73,57.73,0,0,1,75.19,75.58c1.7-1.08,3.44-2.12,5.1-3.27,2.66-1.84,3.33-3.88,2-5.87-1.19-1.84-3.07-2.16-5.77-.72A70.62,70.62,0,0,0,54.65,83.3c-30.95,38-10.54,95.49,37.46,105.53a100.76,100.76,0,0,0,12.64,1.83,44.63,44.63,0,0,0,5.53-.28l1.16-.16L113,190c1.2-.19,2.4-.4,3.6-.62a101.76,101.76,0,0,0,12.3-3.16c.85-.43,1.63-.81,2.41-1.16C156.61,174.05,172.51,149.76,171.19,122.18Z"/><path d="M109.91,24.05V28.9q0,48,0,95.94a36,36,0,0,1-.11,4,3.45,3.45,0,0,1-3.64,3.42c-2.24,0-3.39-1.31-3.71-3.37a27.08,27.08,0,0,1-.21-4q0-48.23,0-96.44v-5.3l-1-.27c-.73,1-1.53,2-2.19,3.07C96.56,30,94.15,34,91.67,38s-4.25,5-6.57,3.64S82.67,38,85,34.21c5.19-8.46,10.43-16.89,15.64-25.34a13.78,13.78,0,0,1,.82-1.27c2.65-3.47,5.57-3.51,8.08.13,5.93,8.58,11.73,17.25,17.57,25.89a13.12,13.12,0,0,1,1.24,2.19c.79,1.84.09,3.29-1.4,4.39a3.27,3.27,0,0,1-4.58-.36,20.32,20.32,0,0,1-2.44-3.2c-2.93-4.28-5.83-8.58-8.75-12.88Z"/></svg>