<svg id="Layer_1" data-name="Layer 1" xmlns="http://www.w3.org/2000/svg" viewBox="0 0 200 200"><path d="M39.87,47c-2.11-.17-3.83-.22-5.51-.47a15.73,15.73,0,0,1-4.52-1.08A5,5,0,0,1,27,39.34a5.17,5.17,0,0,1,5.59-3.82c4.2.14,8.39.38,12.59.5a42,42,0,0,0,4.22-.29c.63-4.51,1-8.87,1.87-13.1C53.7,11,56.06,8.8,68,7.53c6.44-.68,12.92-1,19.39-1.23,10-.35,20-.62,29.93-.6a36.51,36.51,0,0,1,9.8,1.6,11.47,11.47,0,0,1,8.64,9.62c.62,3.57.88,7.22,1.25,10.83.18,1.73.26,3.48.42,5.75a84.42,84.42,0,0,0,15,.06,11.84,11.84,0,0,1,4.08.1A4.89,4.89,0,0,1,160,38.9,5.1,5.1,0,0,1,156.18,44c-2,.62-4,.91-5.68,1.27.63,21.85,1.29,43.37,1.86,64.89.33,12.44.48,24.89.76,37.34.1,4,.37,8,.5,12.08a21.84,21.84,0,0,1-.23,4.2c-.56,3.24-2.77,5.11-5.74,5s-5-2-5.39-5.36c-.49-4.88-1-9.77-1.06-14.66-.16-9.65,0-19.31,0-29-.07-13.32-.08-26.65-.34-40-.19-9.63-.72-19.25-1.19-28.87-.09-1.89-.57-3.77-1-6.31-2,0-3.92,0-5.8,0-12.79.19-25.58.29-38.37.61-13.31.32-26.62.85-39.92,1.3-1,0-2.06.2-3.65.37-.09,1.76-.3,3.43-.26,5.09.33,13.15.54,26.31,1.1,39.45.82,19.42,1.88,38.84,2.87,58.25.32,6.3.61,12.61,1.19,18.88.41,4.39,1.41,8.62,5.11,11.72A11.89,11.89,0,0,0,69,183.52c15.42-.39,30.84-.82,46.26-1.21,6.31-.16,12.63-.08,18.93-.47a34.09,34.09,0,0,0,8.58-1.9c3.35-1.11,5.91-.67,7.36,1.82s.62,5.66-2.43,7.6A21.3,21.3,0,0,1,136.38,193c-21.19.26-42.39.69-63.59,1.1a43.69,43.69,0,0,0-5.22.5c-5.22.73-9.54-1-13.56-4.3a26.86,26.86,0,0,1-9.68-18.62c-.61-5.74-.93-11.52-1.25-17.29-.65-11.71-1.2-23.42-1.8-35.13-.08-1.58-.24-3.15-.28-4.73-.39-16.12-.8-32.24-1.11-48.36C39.76,59.86,39.87,53.59,39.87,47Zm85.76-13.28c-.31-4.34-.58-8.11-.86-11.88-.2-2.61-1.88-3.57-4.23-3.72-1.05-.06-2.1-.08-3.15,0-12.23.32-24.47.56-36.7,1-4.36.16-8.7.85-13,1.28A3.64,3.64,0,0,0,64,23.49c-.78,3.75-1.43,7.49-.37,11.7C84,35.92,104.23,34.3,125.63,33.68Z"/><path d="M118.79,100.09q1.27,25.43,2.53,50.84a17.21,17.21,0,0,1,0,3.66,5.88,5.88,0,0,1-11.41.74,35.55,35.55,0,0,1-1.07-7.25c-.28-6.47-.42-13-.54-19.42-.33-18.55-.6-37.1-.93-55.64,0-1.22-.33-2.42-.46-3.64-.36-3.41,1.12-5.74,4-6.37s5.21.8,6.32,4.1a13.25,13.25,0,0,1,.67,3.59c.53,9.79,1,19.57,1.5,29.36Z"/><path d="M87.33,141.73c0,5,.17,9.74,0,14.46-.18,3.95-2.11,5.92-5.22,6s-5.28-1.69-5.63-5.63c-.55-6.27-.6-12.59-1-18.89-.51-9.07-1.1-18.15-1.66-27.23q-1.09-18.09-2.2-36.18c-.07-1.22-.2-2.44-.36-3.65-.51-4,1.1-6.67,4.26-7.14,2.85-.43,5.52,1.56,6.12,5.2.71,4.3,1,8.68,1.36,13q1.73,21.21,3.33,42.42C86.78,130.09,87,136.05,87.33,141.73Z"/></svg>