<svg id="Layer_1" data-name="Layer 1" xmlns="http://www.w3.org/2000/svg" viewBox="0 0 200 200"><path d="M57.6,60.25,20.08,94.75l35.2,38.31a28.63,28.63,0,0,0,1-3.91c.53-5.74,2.72-8.52,8.25-8.71,7.18-.25,14.39,0,21.56.4,3.86.21,5.74,2.5,5.66,5.77s-2.12,5.3-5.9,5.64c-2.82.25-5.67.18-8.51.21s-5.64,0-9.21,0c0,4.38,0,8.27,0,12.16,0,2.53-.41,4.81-2.35,6.74-4.07,4.06-7.68,4.3-11.62,0-7.8-8.5-15.31-17.25-23.07-25.78-6.48-7.12-13.19-14-19.73-21.13a32.93,32.93,0,0,1-4.45-5.81c-2.31-4-1.94-5.74,1.38-9,2.86-2.76,5.76-5.47,8.61-8.24Q36.07,62.88,55.16,44.29C57.56,42,60,39.5,63.54,41.06,68.44,43.24,70.89,45,71,50c0,2.27.18,4.54.22,6.81,0,2.07,0,4.14,0,6.78,5.12.37,10,.9,14.78,1,20,.55,40.07,1,60.1,1.48,8.13.21,16.25.56,24.37.82,12.49.39,18.77,5.55,21.46,17.63,2.91,13.09,2.52,26.21.35,39.34a12.93,12.93,0,0,1-5.22,8.45c-4.84,3.7-10.16,5.87-16.24,5.8-9.07-.11-18.14-.41-27.21-.67-2.83-.08-5.66-.26-8.49-.47-4.42-.32-7-2.74-7.11-6.55-.09-4,2.65-6.88,7.33-6.78,6.23.13,12.44.82,18.66,1.14,5.29.28,10.59.52,15.88.47a15.11,15.11,0,0,0,6.56-1.4,6.59,6.59,0,0,0,3.21-4.15c.91-6.12,2.48-12.16,1.3-18.54-.81-4.37-.08-9-.62-13.45-.92-7.4-2.83-9-10.25-9.35-7.18-.3-14.37-.32-21.56-.52q-16.14-.44-32.29-1c-12.66-.41-25.31-.94-38-1.27a94.39,94.39,0,0,0-10.75.54c-6.27.56-8.62-1.49-8.71-7.89,0-2.45,0-4.9,0-7.34Z"/><path d="M110.56,135.2a6.45,6.45,0,1,1,6.32-6.57A6.25,6.25,0,0,1,110.56,135.2Z"/></svg>