<svg id="Layer_1" data-name="Layer 1" xmlns="http://www.w3.org/2000/svg" viewBox="0 0 200 200"><path d="M144,58.8c-.45,7.83-.85,15.33-4.87,22-2.36,3.91-5.86,5.77-9.65,5.1-4.32-.76-7.17-3.69-7.75-8.54-.43-3.58-.45-7.22-.58-10.83-.27-7.49-.15-15-.81-22.46-1.29-14.62,6.06-19.82,19.58-21.24,6.12-.64,12.55.44,18.67,1.61a30.52,30.52,0,0,0,15-.94c4.13-1.25,8.2-1.66,12.49.36,7.07,3.34,7.38,8,6.69,13.93s-7.54,8.55-12.87,5.67a10.08,10.08,0,0,0-5.07-.88c-6.45.35-12.9.92-19.65.55,1.87,1.5,3.72,3,5.63,4.49,18.91,14.53,29.58,33.21,29.89,57.54.15,12.09-.43,23.93-6.4,34.72-12.57,22.66-29.88,39.68-55.26,48-21,6.88-41.75,7.57-62.72.82a51.26,51.26,0,0,1-10.5-4.92C44.66,177.11,33.63,170.29,24.3,161c-7.2-7.12-11.5-15.72-14-25.34A109.76,109.76,0,0,1,8.64,85.1C11.37,72,14.45,58.73,22.69,47.8A73.07,73.07,0,0,1,37.12,34C45.51,27.7,53.57,20.5,64.2,18a40.37,40.37,0,0,1,11.91-.88c4.12.29,6.85,4.49,6.55,8.78s-3.48,7.78-7.86,7.66c-8.47-.23-14.72,4.15-20.91,9a52.51,52.51,0,0,1-5.29,3.61c-10.74,6.48-16.16,16.5-20,28.09a105.88,105.88,0,0,0-4.85,41.23c1.18,16.6,5.81,31.63,21.12,41.16,5.67,3.53,11.07,7.5,16.63,11.19,10,6.65,21.51,8.71,33,8.58,22-.25,42.16-6.43,57.92-22.67,8.48-8.75,17-18,19.16-30.56,2.75-16.12,2.63-32-7.84-46.11C158.4,69.78,152.76,63,144,58.8Z"/><path d="M117.17,15.62a8.43,8.43,0,1,1-16.86-.12,8.43,8.43,0,0,1,16.86.12Z"/></svg>