<svg id="Layer_1" data-name="Layer 1" xmlns="http://www.w3.org/2000/svg" viewBox="0 0 200 200"><path d="M11.31,80.49c0-8.33.25-16.67-.08-25-.28-7,2.47-9.3,8.26-11.89,5-2.21,10.37-2.54,15.62-3.37C42.85,39,50.66,38.17,58.46,37.3c4.32-.49,8.68-.66,13-1,7.17-.59,14.34-1.15,21.5-1.81,12-1.09,24.12-1.34,36.21-1.47,10-.12,20-.91,30.07-1.35,6.19-.27,12.39-.51,18.6-.63a8.24,8.24,0,0,1,6.87,3.29,22.4,22.4,0,0,1,4.72,12.36,162.55,162.55,0,0,1-.13,28.08c-.58,7.21-.38,14.5-.26,21.75.15,9.66-.93,19.21-2.16,28.75-.67,5.18-3.33,8.56-8.52,9.59-5.94,1.18-11.92,2.19-17.89,3.27-2.4.43-4.8.85-7.21,1.24-6.64,1.06-13.26,2.23-19.92,3.1A25.25,25.25,0,0,0,119.89,148c-3.77,3.17-8,5.82-11.9,8.8-2.14,1.62-4,3.58-6.17,5.19-3.2,2.4-6.59,4.54-9.78,7-2.24,1.7-4.28,3.68-6.41,5.53a90.3,90.3,0,0,1-7,6,3.89,3.89,0,0,1-5.76-1.55c-1.12-2.09-.28-4.39,1.92-5.73A12.27,12.27,0,0,0,78,170.66a47.49,47.49,0,0,1,13.86-11.31c2-1.12,3.56-2.88,5.32-4.35s3.67-3.18,5.61-4.63c4.16-3.11,8.59-5.9,12.56-9.23,4.81-4,10.34-5.91,16.37-6.84,7.69-1.19,15.36-2.49,23-3.72q8.79-1.4,17.57-2.75c.2,0,.4,0,.59-.08,5.48-1,5.68-1.71,6.42-7.26,1.9-14.34,1.29-28.74,1.52-43.12.11-7.19.8-14.36.88-21.54a72.93,72.93,0,0,0-1.11-11.78c-.22-1.48-1.27-2.87-2.1-4.2a2,2,0,0,0-1.55-.56c-6,.17-12,.34-18,.62-5.6.26-11.2.8-16.8,1-9.91.28-19.83.1-29.73.6S93,43.09,83.23,43.92a79.37,79.37,0,0,1-8.69.56c-8.59-.26-17,1.44-25.4,2.55-6.93.91-13.89,1.67-20.8,2.72a45.29,45.29,0,0,0-7.16,2.17,2.33,2.33,0,0,0-1.61,2.58c.05,17.32-.09,34.65.08,52a96,96,0,0,0,2.94,23.3c.64,2.47,1,5.13,2.17,7.3,1.9,3.42,4.65,5.93,9.17,5.63,4-.26,7.93.09,11.89-.1,9.94-.46,19.9-.87,29.81-1.72,5.09-.43,10.1-1.72,15.13-2.72,2.69-.54,4.9.52,5.47,2.84s-.79,4.4-3.4,5.16c-9,2.62-18.24,3.42-27.55,3.7-10.69.31-21.37.63-32.05,1.08-7.1.3-11.53-3.8-15.28-9-2.63-3.64-2.9-8.1-3.88-12.34C10.43,113.91,11.5,98,11.3,82.08c0-.53,0-1.06,0-1.59Z"/><path d="M77.69,100.85c-5.76.71-11.5,1.59-17.27,2.09-7.49.64-15,1-22.51,1.41a4.07,4.07,0,0,1-4.37-4.14c0-2.37,1.84-3.95,4.4-4.13,8.35-.59,16.7-1.25,25-1.93,4.21-.34,8.4-.78,12.6-1.18L100,90.64c4.6-.43,9.21-.83,13.81-1.32,3.4-.36,6.81-.78,10.19-1.32,2.54-.4,4.72.74,5.22,3a4,4,0,0,1-3.49,5.06c-4.94.76-9.92,1.4-14.89,2-7.74.89-15.49,1.7-23.23,2.51-3.28.34-6.57.58-9.86.86Z"/><path d="M150.37,95.36a4.13,4.13,0,0,1-4.06-4.22,4.16,4.16,0,1,1,8.31.2A4.14,4.14,0,0,1,150.37,95.36Z"/></svg>