<svg id="Layer_1" data-name="Layer 1" xmlns="http://www.w3.org/2000/svg" viewBox="0 0 200 200"><path d="M156.18,158c0-8.35-.13-16.71,0-25.06.16-7.36.65-14.71,1-22.06.22-4.52.58-9,.7-13.57.22-8,.48-16,.37-24-.11-8.7-.31-17.42-1.05-26.08-.61-7.06-1.48-14.18-4-20.91A16,16,0,0,0,146,17.67a12,12,0,0,0-4-1.27,82.1,82.1,0,0,0-19.19-.51c-3.37.31-6.81-.31-10.22-.34-8.25-.06-16.5,0-24.74-.05-4.46,0-8.91-.18-13.36-.28-.18,0-.43-.08-.52,0-1.81,1.75-3.9.87-6,.82a91.12,91.12,0,0,0-9.33.41c-4.48.36-8.5,4.41-9.5,8.75-1.46,6.31-.71,12.68-1,19-.37,8.71-.87,17.4-1.3,26.1-.52,10.36-1.31,20.71-1.47,31.06-.35,22.59-.39,45.17-.49,67.76a27.87,27.87,0,0,0,3.4,12.5,5.08,5.08,0,0,0,2.85,2.12c2.17.7,4.48.92,6.68,1.53,4,1.12,8.06.91,12.12,1,1.52,0,3,.35,4.57.34,2.52,0,5-.21,7.56-.33,6.7-.34,13.4-.65,20.1-1,3.29-.18,6.56-.56,9.84-.69,4.59-.18,9.19-.19,13.78-.29q5.57-.12,11.12-.3a3.87,3.87,0,0,1,3.9,3.19,3.54,3.54,0,0,1-2.74,4.14,35,35,0,0,1-5.79.42c-5.72,0-11.45-.16-17.16.05-7,.27-14.08.88-21.12,1.31-1.47.09-3-.06-4.42,0-4.4.29-8.83,1.16-13.19.84-7.08-.52-14.28.31-21.25-1.57A53.13,53.13,0,0,1,46,189.45c-4.12-2-5.21-6.28-6.61-10.22-2.85-8-1.73-16.22-1.79-24.37q-.18-24.06,0-48.13c.09-7.83.64-15.65,1.06-23.47.39-7.35,1-14.69,1.29-22,.39-9.59.47-19.19.86-28.78.25-6.16,1-12.3,5.36-17.17a18,18,0,0,1,12.5-6.16c4-.28,7.94-.89,11.92-1.21,1.8-.14,3.63.12,5.44.11s3.86-.21,5.79-.19c6.3.08,12.6.25,18.9.34,4.13.05,8.26,0,12.39,0,7.17,0,14.35-.19,21.51.08A46.43,46.43,0,0,1,146.83,10c6.41,2.05,10.7,6.92,13,13.11,1.63,4.43,2.34,9.2,3.43,13.82,1.86,7.89,1.16,15.94,1.61,23.92.52,9.19,1.2,18.36.85,27.56-.29,7.93-.86,15.85-1.27,23.78-.11,2.06,0,4.13-.1,6.2-.31,9.24-.83,18.47-.94,27.71-.15,12.31,0,24.62,0,36.92,0,.65.21,1.28.25,1.93a3.54,3.54,0,0,1-3,3.94,3.41,3.41,0,0,1-4.14-2.69,42.19,42.19,0,0,1-.62-7c-.08-7.07,0-14.14,0-21.21Z"/><path d="M86.91,131.46c2.73-7,8.93-11.5,13-17.58,5.39-8,12.63-14.23,19.28-21A25.41,25.41,0,0,1,124,89.47c3.55-2.26,10.79.27,12.89,4,1.83,3.28,3.63,6.57,5.56,9.79,2.39,4,4.93,7.85,7.36,11.81a10.81,10.81,0,0,1,1.08,2.6,4,4,0,0,1-7.16,3.22c-2.61-4.31-5.23-8.62-7.76-13-1.82-3.14-3.41-6.43-5.3-9.54-1.48-2.43-3.34-2.7-5.37-.8-3.26,3.06-6.41,6.24-9.53,9.44-2.46,2.52-4.93,5-7.2,7.74-3.49,4.14-6.92,8.33-10.16,12.65a51.43,51.43,0,0,0-5.67,8.91c-3.14,6.72-8.31,4.75-11.71.56-3.14-3.88-6.22-7.81-9.3-11.75-.6-.76-1.18-.89-1.92-.3a30.23,30.23,0,0,0-4.61,3.76c-2.34,2.78-4.37,5.84-6.54,8.77-1.53,2.06-3.73,2.51-5.48,1.15S51.2,135,52.7,133c2.89-3.78,5.6-7.73,8.82-11.22a14.17,14.17,0,0,1,9.68-4.93,6,6,0,0,1,5.11,2.25C79.81,123.17,83.28,127.24,86.91,131.46Z"/><path d="M67.58,80.15a10.59,10.59,0,0,1-9.87-4.39,13.88,13.88,0,0,1-2.47-9.17,17.46,17.46,0,0,1,3.7-10.47,10.4,10.4,0,0,1,9.19-3.85,11.38,11.38,0,0,0,4.31-.5c3-1,5.56-.17,6.94,2.65,1.92,3.89,3.69,7.92,2.45,12.35-1,3.43-1.77,7.13-4.35,9.71A11.57,11.57,0,0,1,67.58,80.15Zm5.8-20.89a27.86,27.86,0,0,1-5.54.45,3.43,3.43,0,0,0-3.59,1.6A10.12,10.12,0,0,0,62.68,68,6.1,6.1,0,0,0,64,71.73c2.83,2.8,8.21,1.13,9.3-2.72a15.24,15.24,0,0,1,.82-2.5C75.47,63.85,74.61,61.51,73.38,59.26Z"/></svg>