<svg id="Layer_1" data-name="Layer 1" xmlns="http://www.w3.org/2000/svg" viewBox="0 0 200 200"><path d="M19.38,61.6c.16,3.63.41,7.26.49,10.89q.35,15.81.6,31.61c.17,10.54.09,21.09.56,31.62.25,5.54,1.43,11,2.23,16.54a3.64,3.64,0,0,0,2.34,2.87,31.61,31.61,0,0,0,14.31,3.28c17.56-.1,35.12.31,52.69.29,4.68,0,9.37-.84,14.05-1.32,7.28-.74,14.55-1.53,21.82-2.23,4.82-.46,9.65-.76,14.47-1.2,3.76-.35,7.51-.85,11.27-1.21,4.5-.43,9.07-.46,13.5-1.25a73.39,73.39,0,0,0,10.79-3.33,2.67,2.67,0,0,0,1.69-2.82,79.16,79.16,0,0,0-1.11-13.1,182.21,182.21,0,0,1-2-33.18,43.15,43.15,0,0,0-.39-5.18c-.42-4.13-.84-8.24-.1-12.4a9.62,9.62,0,0,0-.28-3.68c-1-4.31-.31-8.61,0-12.91A3.74,3.74,0,0,1,180,61.35a3.69,3.69,0,0,1,4,3.36c.14,1.59,0,3.21.09,4.81.07,2.47.22,4.93.25,7.39,0,3-.07,5.91,0,8.86,0,2.29.31,4.57.4,6.86.2,5.26.41,10.51.5,15.77a214.37,214.37,0,0,0,2.51,27.71c.62,4.26.13,8.76-.41,13.08-.39,3-2.93,5.05-5.59,6.05a81.31,81.31,0,0,1-13.84,4.09c-4.79.89-9.74.87-14.62,1.31-3.45.32-6.9.76-10.35,1.09-3.7.36-7.42.57-11.12,1-5.79.64-11.56,1.49-17.36,2.09-3.58.36-7.23.11-10.77.65-13.6,2.06-27.27.85-40.91,1.05-9.43.13-18.87-.22-28.3-.49-5.31-.15-9.92-2.65-14.39-5.13-3.65-2-4.43-6-5.12-9.71C13,140.94,13,130.59,13,120.23c0-13-.17-25.93-.43-38.89-.15-7.24-.71-14.47-.9-21.71a14.61,14.61,0,0,1,.94-6,21.3,21.3,0,0,1,3.86-5.6,4.42,4.42,0,0,1,3-1c4.77.07,9.55.64,14.3.43C44.61,47,55.38,46.36,66.12,45.4c15-1.33,29.89-2.71,44.94-2.42,6.3.12,12.61-.79,18.92-1.21,5.94-.4,11.88-.87,17.83-1.1,7.25-.3,14.5-.37,21.76-.57,2.22-.06,4.44-.38,6.65-.28,3.08.14,5,2,5.88,4.87a6.43,6.43,0,0,1-2.16,6.89c-2.43,2.12-5.06,4-7.57,6A54.46,54.46,0,0,0,167.14,62a80.4,80.4,0,0,1-13.59,11,13.56,13.56,0,0,0-3.32,3.18A48.58,48.58,0,0,1,138,87.72a15.27,15.27,0,0,0-4.09,3.75c-3.1,4.42-7.49,7.36-11.56,10.69a47,47,0,0,0-6.61,6.23,23.11,23.11,0,0,1-8.37,6.32c-4.25,2-8.5,4.11-13.46,3.68-7.09-.61-13.34-3-18.43-8.15-1.12-1.13-2.49-2-3.64-3.13-2-1.88-3.82-3.87-5.76-5.78-1-1-2.17-2-3.26-3a36.22,36.22,0,0,1-4.38-4C55,90,50.19,87.28,45.9,84c-2.1-1.62-4.26-3.17-6.25-4.92a69.2,69.2,0,0,1-7.78-7.42c-3.44-4.17-7.7-7.2-12-10.26Zm4.73-6.7c1,.66,1.82,1.1,2.53,1.67,3.25,2.57,7.06,4.71,9.54,7.9s5.76,5.91,8.65,8.85A35.78,35.78,0,0,0,49,76.75c3,2.21,6.15,4.19,9,6.57s4.79,5.22,7.59,7.29a68.43,68.43,0,0,1,8.3,7.65,93.21,93.21,0,0,0,8.73,8,20.91,20.91,0,0,0,11.08,4.35c4.28.44,7.8-1.71,11.38-3.46a20.28,20.28,0,0,0,4.33-3.4c2.92-2.66,5.75-5.42,8.67-8.08s5.94-5.22,8.86-7.89c2.45-2.25,4.8-4.61,7.25-6.87,2.81-2.6,6-4.83,8.43-7.76a44.63,44.63,0,0,1,9.56-8.7c2.79-1.93,5.33-4.22,7.93-6.41s5.22-4.57,7.87-6.8c1.33-1.13,2.78-2.12,4.19-3.18-.19-.2-.23-.28-.26-.28-11.4.39-22.81.68-34.2,1.23-8.11.39-16.19,1.34-24.3,1.65-10.65.41-21.34-.32-32,1.12-4.79.65-9.62,1-14.44,1.41-4.19.38-8.38.83-12.59,1.08q-7.43.45-14.86.6C34.49,55,29.47,54.9,24.11,54.9Z"/></svg>